<?xml version="1.0" encoding="UTF-8" standalone="no"?>
<!DOCTYPE svg PUBLIC "-//W3C//DTD SVG 1.1//EN" "http://www.w3.org/Graphics/SVG/1.1/DTD/svg11.dtd">
<svg width="100%" height="100%" viewBox="0 0 100 100" version="1.1" xmlns="http://www.w3.org/2000/svg" xmlns:xlink="http://www.w3.org/1999/xlink" xml:space="preserve" xmlns:serif="http://www.serif.com/" style="fill-rule:evenodd;clip-rule:evenodd;stroke-linejoin:round;stroke-miterlimit:2;">
    <g transform="matrix(1,0,0,1,-1355,-2730)">
        <g transform="matrix(1,0,0,1,132,0)">
            <path d="M1323,2755C1323,2741.2 1311.8,2730 1298,2730L1248,2730C1234.2,2730 1223,2741.2 1223,2755L1223,2805C1223,2818.8 1234.2,2830 1248,2830L1298,2830C1311.8,2830 1323,2818.8 1323,2805L1323,2755ZM1300.18,2755.37L1245.76,2755.37C1242.85,2755.37 1240.5,2757.72 1240.5,2760.63C1240.5,2762.08 1241.12,2763.48 1242.12,2764.44L1267.93,2788.96C1269.33,2790.3 1271.12,2790.97 1272.97,2790.97C1274.82,2790.97 1276.56,2790.3 1278.01,2788.96L1302.09,2766.06L1302.09,2797.8C1302.09,2799.71 1300.52,2801.28 1298.61,2801.28L1247.33,2801.28C1245.43,2801.28 1243.86,2799.71 1243.86,2797.8L1243.86,2777.2C1243.86,2776.25 1243.13,2775.52 1242.18,2775.52C1241.23,2775.52 1240.5,2776.25 1240.5,2777.2L1240.5,2797.8C1240.5,2801.55 1243.58,2804.63 1247.33,2804.63L1298.67,2804.63C1302.42,2804.63 1305.5,2801.55 1305.5,2797.8L1305.5,2760.18C1305.16,2757.49 1302.92,2755.37 1300.18,2755.37ZM1301.47,2762.03L1275.66,2786.55C1274.15,2788.01 1271.8,2788.01 1270.29,2786.55L1244.48,2762.03C1244.08,2761.69 1243.86,2761.19 1243.86,2760.63C1243.86,2759.57 1244.7,2758.72 1245.76,2758.72L1300.18,2758.72C1301.25,2758.72 1302.09,2759.57 1302.09,2760.63C1302.09,2761.13 1301.86,2761.64 1301.47,2762.03Z" style="fill:url(#_Linear1);"/>
        </g>
    </g>
    <defs>
        <linearGradient id="_Linear1" x1="0" y1="0" x2="1" y2="0" gradientUnits="userSpaceOnUse" gradientTransform="matrix(96.3649,0,0,114.354,1223.84,2195.52)"><stop offset="0" style="stop-color:rgb(38,175,230);stop-opacity:1"/><stop offset="0.3" style="stop-color:rgb(153,137,255);stop-opacity:1"/><stop offset="0.72" style="stop-color:rgb(250,174,242);stop-opacity:1"/><stop offset="1" style="stop-color:rgb(254,61,206);stop-opacity:1"/></linearGradient>
    </defs>
</svg>
