<?xml version="1.0" encoding="UTF-8" standalone="no"?>
<!DOCTYPE svg PUBLIC "-//W3C//DTD SVG 1.1//EN" "http://www.w3.org/Graphics/SVG/1.1/DTD/svg11.dtd">
<svg width="100%" height="100%" viewBox="0 0 100 100" version="1.1" xmlns="http://www.w3.org/2000/svg" xmlns:xlink="http://www.w3.org/1999/xlink" xml:space="preserve" xmlns:serif="http://www.serif.com/" style="fill-rule:evenodd;clip-rule:evenodd;stroke-linejoin:round;stroke-miterlimit:2;">
    <g transform="matrix(1,0,0,1,-1355,-2602)">
        <g transform="matrix(1,0,0,1,132,0)">
            <path d="M1323,2627C1323,2613.2 1311.8,2602 1298,2602L1248,2602C1234.2,2602 1223,2613.2 1223,2627L1223,2677C1223,2690.8 1234.2,2702 1248,2702L1298,2702C1311.8,2702 1323,2690.8 1323,2677L1323,2627ZM1275.44,2672.97C1285.06,2671.78 1292.5,2663.57 1292.5,2653.63L1292.5,2645.5L1291.88,2645.5C1291.43,2645 1290.78,2644.69 1290.06,2644.69C1289.34,2644.69 1288.69,2645 1288.25,2645.5L1287.62,2645.5L1287.62,2653.63C1287.62,2661.7 1281.08,2668.25 1273,2668.25C1264.92,2668.25 1258.38,2661.72 1258.38,2653.63L1258.38,2645.5L1257.75,2645.5C1257.31,2645 1256.66,2644.69 1255.94,2644.69C1255.22,2644.69 1254.57,2645 1254.12,2645.5L1253.5,2645.5L1253.5,2653.63C1253.5,2663.58 1260.94,2671.78 1270.56,2672.97L1270.56,2679.62L1262.45,2679.62C1261.08,2679.62 1260,2680.72 1260,2682.06C1260,2683.42 1261.1,2684.5 1262.45,2684.5L1283.55,2684.5C1284.92,2684.5 1286,2683.41 1286,2682.06C1286,2680.71 1284.9,2679.62 1283.55,2679.62L1275.44,2679.62L1275.44,2672.97ZM1261.62,2630.86C1261.62,2624.59 1266.73,2619.5 1273,2619.5C1279.28,2619.5 1284.38,2624.59 1284.38,2630.86L1284.38,2653.64C1284.38,2659.91 1279.27,2665 1273,2665C1266.72,2665 1261.62,2659.91 1261.62,2653.64L1261.62,2630.86ZM1266.5,2630.89C1266.5,2627.29 1269.42,2624.38 1273,2624.38C1276.59,2624.38 1279.5,2627.3 1279.5,2630.89L1279.5,2653.61C1279.5,2657.21 1276.58,2660.12 1273,2660.12C1269.41,2660.12 1266.5,2657.2 1266.5,2653.61L1266.5,2630.89Z" style="fill:url(#_Linear1);"/>
        </g>
    </g>
    <defs>
        <linearGradient id="_Linear1" x1="0" y1="0" x2="1" y2="0" gradientUnits="userSpaceOnUse" gradientTransform="matrix(96.3649,0,0,114.354,1223.84,2195.52)"><stop offset="0" style="stop-color:rgb(38,175,230);stop-opacity:1"/><stop offset="0.3" style="stop-color:rgb(153,137,255);stop-opacity:1"/><stop offset="0.72" style="stop-color:rgb(250,174,242);stop-opacity:1"/><stop offset="1" style="stop-color:rgb(254,61,206);stop-opacity:1"/></linearGradient>
    </defs>
</svg>
