<?xml version="1.0" encoding="UTF-8" standalone="no"?>
<!DOCTYPE svg PUBLIC "-//W3C//DTD SVG 1.1//EN" "http://www.w3.org/Graphics/SVG/1.1/DTD/svg11.dtd">
<svg width="100%" height="100%" viewBox="0 0 100 100" version="1.1" xmlns="http://www.w3.org/2000/svg" xmlns:xlink="http://www.w3.org/1999/xlink" xml:space="preserve" xmlns:serif="http://www.serif.com/" style="fill-rule:evenodd;clip-rule:evenodd;stroke-linejoin:round;stroke-miterlimit:2;">
    <g transform="matrix(1,0,0,1,-1355,-2972.84)">
        <g transform="matrix(1,0,0,1,0,114.845)">
            <g transform="matrix(1,0,0,1,132,-114.845)">
                <path d="M1323,2997.85C1323,2984.05 1311.8,2972.85 1298,2972.85L1248,2972.85C1234.2,2972.85 1223,2984.05 1223,2997.85L1223,3047.85C1223,3061.64 1234.2,3072.85 1248,3072.85L1298,3072.85C1311.8,3072.85 1323,3061.64 1323,3047.85L1323,2997.85ZM1282.25,3055.35C1282.25,3055.23 1282.19,3055.11 1282.25,3054.99C1282.48,3053.92 1282.72,3052.85 1283.19,3051.84C1283.49,3051.25 1283.85,3050.84 1284.32,3050.42C1286.39,3048.76 1288.65,3047.45 1290.84,3045.97C1291.13,3045.79 1291.43,3045.67 1291.85,3045.44C1288.47,3048.76 1284.79,3051.49 1282.25,3055.35ZM1254.75,3055.05L1252.02,3055.05L1252.02,3054.99L1254.75,3054.99C1255.52,3054.99 1256.23,3054.93 1257,3055.05C1256.23,3055.28 1255.52,3055.05 1254.75,3055.05ZM1257.35,3055.11L1257.35,3054.99C1259.96,3054.93 1262.63,3054.99 1265.12,3055.11L1257.35,3055.11ZM1282.07,3054.69C1281.95,3054.93 1281.77,3054.81 1281.59,3054.81C1274.48,3054.81 1267.37,3054.75 1260.26,3054.75L1252.14,3054.75C1252.26,3054.63 1252.26,3054.57 1252.32,3054.51C1254.04,3053.15 1255.75,3051.78 1257.47,3050.42C1259.13,3049.05 1260.91,3047.81 1262.63,3046.5C1264.88,3044.78 1267.19,3043 1269.44,3041.28C1269.8,3041.05 1269.98,3041.1 1270.15,3041.34C1271.04,3042.41 1271.99,3043.48 1272.88,3044.49C1274.01,3045.79 1275.19,3047.04 1276.38,3048.34C1278.16,3050.3 1279.99,3052.32 1281.83,3054.28C1281.95,3054.39 1282.13,3054.51 1282.07,3054.69ZM1277.39,3035.17C1278.93,3040.99 1280.47,3046.8 1282.01,3052.62C1281.77,3052.67 1281.65,3052.44 1281.53,3052.32C1280.41,3051.07 1279.34,3049.83 1278.28,3048.64C1275.85,3045.97 1273.41,3043.3 1270.99,3040.63C1270.75,3040.33 1270.69,3040.21 1271.04,3039.98C1272.05,3039.21 1273,3038.43 1274.01,3037.72C1275.13,3036.77 1276.26,3036 1277.39,3035.17ZM1300.14,3045.97C1299.85,3046.27 1299.55,3046.56 1299.37,3046.86C1299.26,3047.1 1299.14,3047.16 1298.84,3046.98C1298.42,3046.68 1297.95,3046.44 1297.54,3046.21C1297.48,3046.15 1297.3,3046.15 1297.3,3045.97C1297.36,3045.79 1297.48,3045.79 1297.6,3045.85C1298.07,3045.91 1298.07,3045.61 1298.13,3045.32C1298.13,3044.72 1298.19,3044.13 1298.25,3043.54C1298.37,3042.23 1298.42,3040.87 1298.54,3039.56C1298.54,3039.38 1298.54,3039.15 1298.72,3039.09C1299.02,3038.91 1299.91,3039.26 1300.03,3039.68C1300.2,3040.21 1300.2,3040.75 1300.32,3041.28C1300.56,3042.23 1300.8,3043.18 1300.86,3044.49C1300.91,3044.84 1300.68,3045.44 1300.14,3045.97ZM1296.83,3046.15C1296.71,3046.09 1296.53,3046.03 1296.47,3045.97C1293.98,3044.49 1291.43,3043.06 1288.94,3041.58C1287.05,3040.45 1285.15,3039.32 1283.25,3038.26C1281.42,3037.19 1279.52,3036.12 1277.68,3035.05C1277.44,3034.93 1277.5,3034.82 1277.56,3034.64C1278.16,3033.27 1278.93,3031.91 1279.64,3030.6C1280.88,3028.23 1282.13,3025.91 1283.43,3023.54C1283.85,3022.83 1284.14,3022 1284.79,3021.47C1285.56,3020.81 1286.34,3020.16 1287.16,3019.57C1289.18,3017.96 1291.25,3016.36 1293.21,3014.7C1294.51,3013.57 1295.82,3012.45 1297.12,3011.26L1297.12,3011.56C1296.77,3013.81 1296.65,3016.12 1296.53,3018.44C1296.47,3019.03 1296.29,3019.15 1295.76,3019.09C1294.57,3019.03 1293.45,3019.03 1292.26,3019.03C1292.02,3019.03 1291.79,3019.03 1291.61,3019.21C1291.73,3019.33 1291.85,3019.39 1291.91,3019.39C1292.38,3019.33 1292.5,3019.63 1292.74,3019.92C1294.28,3022.47 1295.82,3025.08 1297.36,3027.64C1297.83,3028.41 1298.07,3029.12 1297.95,3030.01C1297.77,3031.49 1297.65,3033.03 1297.48,3034.52C1297.24,3037.25 1297,3039.98 1296.83,3042.77C1296.83,3043.89 1296.47,3045.02 1296.83,3046.15ZM1275.37,3034.22L1263.4,3042.83L1258.6,3033.45L1268.2,3028.11L1275.37,3034.22ZM1301.45,3036.95C1301.15,3037.6 1300.91,3038.32 1300.8,3039.21C1300.74,3039.56 1300.68,3039.5 1300.5,3039.32C1300.32,3039.03 1300.2,3038.61 1300.09,3038.26C1299.73,3037.49 1299.73,3037.49 1300.2,3036.89C1300.32,3036.71 1300.5,3036.54 1300.62,3036.36C1300.68,3036.3 1300.68,3036.24 1300.8,3036.24C1301.03,3036.36 1301.21,3036.48 1301.45,3036.65C1301.57,3036.71 1301.51,3036.83 1301.45,3036.95ZM1299.14,3032.14C1299.08,3031.67 1299.2,3031.67 1299.37,3031.73C1299.85,3031.97 1300.32,3032.2 1300.8,3032.5C1300.86,3032.5 1300.91,3032.56 1300.91,3032.68C1301.03,3033.03 1300.86,3034.34 1300.74,3034.64C1300.38,3035.35 1299.97,3035.94 1299.55,3036.48C1299.49,3036.6 1299.37,3036.83 1299.26,3036.71C1299.14,3036.6 1299.14,3036.36 1299.2,3036.12C1299.14,3034.82 1299.26,3033.45 1299.14,3032.14ZM1276.97,3034.52C1275.31,3032.92 1273.71,3031.31 1272.05,3029.71C1271.82,3029.47 1271.93,3029.36 1272.05,3029.12C1273.18,3027.34 1274.25,3025.56 1275.31,3023.72C1275.67,3023.19 1275.96,3022.65 1276.32,3022.18C1276.38,3026.33 1277.09,3030.37 1277.21,3034.58C1277.09,3034.58 1277.03,3034.58 1276.97,3034.52ZM1250.54,3015.24L1268.2,3015.24C1268.5,3015.24 1268.67,3015.24 1268.67,3015.65L1268.67,3025.62C1268.67,3025.91 1268.56,3026.03 1268.32,3026.15C1266.95,3026.92 1265.53,3027.75 1264.17,3028.53C1262.15,3029.65 1260.08,3030.66 1258.18,3031.97C1257.77,3032.26 1257.71,3031.97 1257.59,3031.67C1256.7,3029.65 1255.75,3027.7 1254.87,3025.68C1253.32,3022.36 1251.78,3019.03 1250.18,3015.65C1250.01,3015.29 1250.12,3015.24 1250.54,3015.24ZM1303.11,3026.57C1302.81,3027.1 1302.51,3027.64 1302.4,3028.23C1302.34,3028.35 1302.28,3028.47 1302.16,3028.53C1301.51,3028.82 1300.91,3029.3 1300.14,3029.47C1298.9,3029.77 1298.96,3029.77 1298.42,3028.47C1298.19,3027.93 1298.37,3027.81 1298.72,3027.58C1299.49,3027.1 1300.2,3026.63 1301.03,3026.09C1299.97,3025.86 1298.96,3025.62 1297.95,3025.38C1297.77,3025.32 1297.65,3025.32 1297.6,3025.08C1297.42,3023.96 1297.18,3022.83 1297.06,3021.7C1297,3021.05 1296.88,3020.4 1296.88,3019.74C1297.06,3019.74 1297.18,3019.86 1297.3,3019.98C1298.19,3020.87 1299.02,3021.76 1299.91,3022.65C1300.91,3023.78 1302.04,3024.79 1302.99,3026.03C1303.11,3026.15 1303.29,3026.27 1303.11,3026.57ZM1275.43,3022.47C1273.83,3023.36 1272.23,3024.19 1270.63,3025.08C1270.57,3024.67 1270.63,3024.37 1270.63,3024.02L1270.63,3014.94C1270.63,3014.64 1270.69,3014.52 1270.93,3014.4C1271.58,3014.11 1272.17,3013.69 1272.76,3013.4C1274.72,3012.33 1276.67,3011.26 1278.63,3010.19C1281.12,3008.83 1283.61,3007.46 1286.1,3006.16C1288.05,3005.15 1289.89,3004.02 1291.91,3003.13C1292.2,3003.01 1292.32,3003.07 1292.44,3003.31C1293.74,3005.8 1295.4,3008 1296.94,3010.31C1297.12,3010.61 1297.06,3010.73 1296.77,3010.84C1296.05,3011.14 1295.34,3011.44 1294.69,3011.79C1291.37,3013.57 1288.05,3015.41 1284.74,3017.25C1281.71,3018.97 1278.57,3020.75 1275.43,3022.47ZM1310.99,2990.91C1309.09,2991.8 1307.14,2992.63 1305.24,2993.46C1305.06,2993.52 1305,2993.46 1304.94,2993.34C1304.71,2992.93 1304.77,2992.39 1305.3,2991.92C1305.48,2991.74 1305.66,2991.62 1305.71,2991.32C1305.48,2991.26 1305.24,2991.32 1305.06,2991.38C1302.75,2991.98 1300.44,2992.51 1298.13,2992.99C1291.49,2994.47 1284.85,2995.95 1278.21,2997.32C1275.02,2997.97 1271.76,2998.27 1268.5,2998.5C1267.67,2998.56 1266.84,2998.62 1265.89,2998.68C1266.42,2999.57 1266.95,3000.34 1267.43,3001.17C1267.61,3001.41 1267.84,3001.47 1268.14,3001.47C1271.46,3001.29 1274.78,3001.17 1278.1,3000.99C1281.83,3000.82 1285.56,3000.64 1289.42,3000.46C1287.7,3001.41 1286.04,3002.12 1284.5,3003.01C1283.02,3003.84 1281.48,3004.55 1279.99,3005.33C1278.28,3006.22 1276.56,3007.05 1274.84,3007.94C1273.06,3008.83 1271.28,3009.72 1269.5,3010.67C1269.27,3010.78 1269.03,3010.84 1268.73,3010.84C1257.47,3010.9 1246.15,3010.78 1234.89,3010.84C1234.77,3010.84 1234.6,3010.9 1234.48,3010.73C1234.89,3010.37 1235.49,3010.25 1235.96,3009.95C1240.52,3007.58 1245.09,3005.15 1249.59,3002.78C1254.04,3000.46 1258.48,2998.15 1262.92,2995.83C1266.12,2994.17 1269.38,2992.57 1272.64,2990.97C1273.18,2990.67 1273.71,2990.37 1274.42,2990.37C1277.86,2990.43 1281.36,2990.37 1284.79,2990.37L1310.99,2990.37C1311.17,2990.37 1311.46,2990.26 1311.52,2990.49C1311.46,2990.85 1311.17,2990.85 1310.99,2990.91ZM1302.99,2994.41C1301.92,2994.94 1300.91,2995.42 1299.85,2995.95C1297.71,2997.02 1295.52,2998.03 1293.39,2999.1C1293.09,2999.22 1292.68,2999.22 1292.62,2998.86C1292.56,2998.38 1292.32,2998.44 1292.02,2998.44C1290.37,2998.5 1288.71,2998.56 1287.05,2998.68C1284.74,2998.8 1282.48,2998.92 1280.17,2999.1C1279.28,2999.16 1278.45,2999.27 1277.62,2999.33C1278.45,2998.98 1279.28,2998.68 1280.11,2998.5C1283.67,2997.85 1287.22,2997.14 1290.78,2996.43C1294.1,2995.77 1297.42,2995 1300.74,2994.23C1301.74,2993.99 1302.75,2993.7 1303.82,2993.58C1303.64,2993.99 1303.34,2994.23 1302.99,2994.41Z" style="fill:url(#_Linear1);"/>
            </g>
        </g>
    </g>
    <defs>
        <linearGradient id="_Linear1" x1="0" y1="0" x2="1" y2="0" gradientUnits="userSpaceOnUse" gradientTransform="matrix(96.3649,0,0,114.354,1223.84,2195.52)"><stop offset="0" style="stop-color:rgb(38,175,230);stop-opacity:1"/><stop offset="0.3" style="stop-color:rgb(153,137,255);stop-opacity:1"/><stop offset="0.72" style="stop-color:rgb(250,174,242);stop-opacity:1"/><stop offset="1" style="stop-color:rgb(254,61,206);stop-opacity:1"/></linearGradient>
    </defs>
</svg>
