<?xml version="1.0" encoding="UTF-8" standalone="no"?>
<!DOCTYPE svg PUBLIC "-//W3C//DTD SVG 1.1//EN" "http://www.w3.org/Graphics/SVG/1.1/DTD/svg11.dtd">
<svg width="100%" height="100%" viewBox="0 0 100 100" version="1.1" xmlns="http://www.w3.org/2000/svg" xmlns:xlink="http://www.w3.org/1999/xlink" xml:space="preserve" xmlns:serif="http://www.serif.com/" style="fill-rule:evenodd;clip-rule:evenodd;stroke-linejoin:round;stroke-miterlimit:2;">
    <g transform="matrix(1,0,0,1,-1355,-2486)">
        <g transform="matrix(1,0,0,1,132,0)">
            <path d="M1323,2511C1323,2497.2 1311.8,2486 1298,2486L1248,2486C1234.2,2486 1223,2497.2 1223,2511L1223,2561C1223,2574.8 1234.2,2586 1248,2586L1298,2586C1311.8,2586 1323,2574.8 1323,2561L1323,2511ZM1273,2503.5C1271.83,2503.5 1270.67,2503.8 1269.63,2504.4L1247.32,2517.28C1245.24,2518.48 1243.95,2520.72 1243.95,2523.12L1243.95,2548.88C1243.95,2551.28 1245.24,2553.51 1247.32,2554.72L1269.63,2567.6C1270.67,2568.2 1271.83,2568.5 1273,2568.5C1274.17,2568.5 1275.33,2568.2 1276.37,2567.6L1298.68,2554.72C1300.76,2553.52 1302.05,2551.28 1302.05,2548.88L1302.05,2523.12C1302.05,2520.72 1300.76,2518.48 1298.68,2517.28L1276.37,2504.4C1275.33,2503.8 1274.17,2503.5 1273,2503.5ZM1273,2506.61C1273.63,2506.61 1274.26,2506.77 1274.82,2507.1L1297.12,2519.98C1298.24,2520.62 1298.94,2521.83 1298.94,2523.12L1298.94,2548.88C1298.94,2550.17 1298.24,2551.38 1297.12,2552.03L1274.82,2564.91C1273.69,2565.55 1272.31,2565.55 1271.18,2564.91L1248.88,2552.03C1247.76,2551.38 1247.06,2550.17 1247.06,2548.88L1247.06,2523.12C1247.06,2521.83 1247.76,2520.62 1248.88,2519.98L1271.18,2507.1C1271.75,2506.77 1272.37,2506.61 1273,2506.61ZM1273,2511.08C1272.73,2511.08 1272.46,2511.15 1272.22,2511.29C1271.74,2511.57 1271.44,2512.09 1271.44,2512.64L1271.44,2559.36C1271.44,2560.22 1272.14,2560.92 1273,2560.92C1273.86,2560.92 1274.56,2560.22 1274.56,2559.36L1274.56,2537.56L1280.78,2537.56C1281.64,2537.56 1282.34,2536.86 1282.34,2536C1282.34,2535.14 1281.64,2534.44 1280.78,2534.44L1274.56,2534.44L1274.56,2515.33L1287.55,2522.83C1287.54,2522.9 1287.53,2522.96 1287.53,2523.03L1287.53,2548.97C1287.53,2549.83 1288.22,2550.53 1289.08,2550.53C1289.94,2550.53 1290.64,2549.83 1290.64,2548.97L1290.64,2524.62L1293.49,2526.27C1294.24,2526.7 1295.19,2526.45 1295.62,2525.7C1296.05,2524.95 1295.79,2524 1295.05,2523.57L1273.78,2511.29C1273.54,2511.15 1273.27,2511.08 1273,2511.08ZM1264.18,2518.88C1263.32,2518.88 1262.62,2519.58 1262.62,2520.44L1262.62,2544.16L1254.2,2525C1253.9,2524.32 1253.17,2523.95 1252.45,2524.1C1251.73,2524.26 1251.21,2524.89 1251.21,2525.63L1251.21,2546.38C1251.21,2547.24 1251.91,2547.93 1252.77,2547.93C1253.63,2547.93 1254.33,2547.24 1254.33,2546.38L1254.33,2533.03L1262.76,2552.19C1263.01,2552.76 1263.57,2553.12 1264.18,2553.12C1264.29,2553.12 1264.39,2553.11 1264.5,2553.09C1265.22,2552.93 1265.74,2552.3 1265.74,2551.56L1265.74,2520.44C1265.74,2519.58 1265.04,2518.88 1264.18,2518.88Z" style="fill:url(#_Linear1);"/>
        </g>
    </g>
    <defs>
        <linearGradient id="_Linear1" x1="0" y1="0" x2="1" y2="0" gradientUnits="userSpaceOnUse" gradientTransform="matrix(96.3649,0,0,114.354,1223.84,2195.52)"><stop offset="0" style="stop-color:rgb(38,175,230);stop-opacity:1"/><stop offset="0.3" style="stop-color:rgb(153,137,255);stop-opacity:1"/><stop offset="0.72" style="stop-color:rgb(250,174,242);stop-opacity:1"/><stop offset="1" style="stop-color:rgb(254,61,206);stop-opacity:1"/></linearGradient>
    </defs>
</svg>
