<?xml version="1.0" encoding="UTF-8" standalone="no"?>
<!DOCTYPE svg PUBLIC "-//W3C//DTD SVG 1.1//EN" "http://www.w3.org/Graphics/SVG/1.1/DTD/svg11.dtd">
<svg width="100%" height="100%" viewBox="0 0 24 24" version="1.1" xmlns="http://www.w3.org/2000/svg" xmlns:xlink="http://www.w3.org/1999/xlink" xml:space="preserve" xmlns:serif="http://www.serif.com/" style="fill-rule:evenodd;clip-rule:evenodd;stroke-linejoin:round;stroke-miterlimit:2;">
    <path d="M22.295,0L1.705,0C0.764,0 0,0.764 0,1.705L0,22.295C0,23.236 0.764,24 1.705,24L22.295,24C23.236,24 24,23.236 24,22.295L24,1.705C24,0.764 23.236,0 22.295,0ZM8,19L5,19L5,8L8,8L8,19ZM20,19L17,19L17,13.396C17,10.028 13,10.283 13,13.396L13,19L10,19L10,8L13,8L13,9.765C14.396,7.179 20,6.988 20,12.241L20,19ZM6.5,6.732C5.534,6.732 4.75,5.942 4.75,4.968C4.75,3.994 5.534,3.204 6.5,3.204C7.466,3.204 8.25,3.994 8.25,4.968C8.25,5.942 7.467,6.732 6.5,6.732Z" style="fill:rgb(58,55,55);fill-rule:nonzero;"/>
</svg>
