<?xml version="1.0" encoding="UTF-8" standalone="no"?>
<!DOCTYPE svg PUBLIC "-//W3C//DTD SVG 1.1//EN" "http://www.w3.org/Graphics/SVG/1.1/DTD/svg11.dtd">
<svg width="100%" height="100%" viewBox="0 0 42 42" version="1.1" xmlns="http://www.w3.org/2000/svg" xmlns:xlink="http://www.w3.org/1999/xlink" xml:space="preserve" xmlns:serif="http://www.serif.com/" style="fill-rule:evenodd;clip-rule:evenodd;stroke-linejoin:round;stroke-miterlimit:2;">
    <g transform="matrix(1,0,0,1,-1578.61,-2730)">
        <path d="M1620.61,2735.03C1620.61,2732.25 1618.36,2730 1615.59,2730L1583.64,2730C1580.87,2730 1578.61,2732.25 1578.61,2735.03L1578.61,2766.97C1578.61,2769.75 1580.87,2772 1583.64,2772L1615.59,2772C1618.36,2772 1620.61,2769.75 1620.61,2766.97L1620.61,2735.03ZM1600.68,2760.2C1604.9,2759.67 1608.16,2756.07 1608.16,2751.71L1608.16,2748.15L1607.89,2748.15C1607.7,2747.93 1607.41,2747.79 1607.1,2747.79C1606.78,2747.79 1606.49,2747.93 1606.3,2748.15L1606.03,2748.15L1606.03,2751.71C1606.03,2755.25 1603.16,2758.12 1599.61,2758.12C1596.07,2758.12 1593.2,2755.26 1593.2,2751.71L1593.2,2748.15L1592.93,2748.15C1592.73,2747.93 1592.45,2747.79 1592.13,2747.79C1591.82,2747.79 1591.53,2747.93 1591.34,2748.15L1591.06,2748.15L1591.06,2751.71C1591.06,2756.08 1594.33,2759.67 1598.55,2760.2L1598.55,2763.11L1594.99,2763.11C1594.39,2763.11 1593.91,2763.59 1593.91,2764.18C1593.91,2764.78 1594.39,2765.25 1594.99,2765.25L1604.24,2765.25C1604.84,2765.25 1605.31,2764.77 1605.31,2764.18C1605.31,2763.59 1604.83,2763.11 1604.24,2763.11L1600.68,2763.11L1600.68,2760.2ZM1594.63,2741.73C1594.63,2738.98 1596.87,2736.75 1599.61,2736.75C1602.37,2736.75 1604.6,2738.98 1604.6,2741.73L1604.6,2751.72C1604.6,2754.47 1602.36,2756.7 1599.61,2756.7C1596.86,2756.7 1594.63,2754.47 1594.63,2751.72L1594.63,2741.73ZM1596.76,2741.74C1596.76,2740.17 1598.04,2738.89 1599.61,2738.89C1601.19,2738.89 1602.46,2740.17 1602.46,2741.74L1602.46,2751.71C1602.46,2753.28 1601.18,2754.56 1599.61,2754.56C1598.04,2754.56 1596.76,2753.28 1596.76,2751.71L1596.76,2741.74Z" style="fill:white;"/>
    </g>
</svg>
