<?xml version="1.0" encoding="UTF-8" standalone="no"?>
<!DOCTYPE svg PUBLIC "-//W3C//DTD SVG 1.1//EN" "http://www.w3.org/Graphics/SVG/1.1/DTD/svg11.dtd">
<svg width="100%" height="100%" viewBox="0 0 431 431" version="1.1" xmlns="http://www.w3.org/2000/svg" xmlns:xlink="http://www.w3.org/1999/xlink" xml:space="preserve" xmlns:serif="http://www.serif.com/" style="fill-rule:evenodd;clip-rule:evenodd;stroke-linejoin:round;stroke-miterlimit:2;">
    <g transform="matrix(1,0,0,1,-2602.29,-2669.84)">
        <g transform="matrix(1,0,0,1,2561.33,2628.88)">
            <path d="M256,40.96C137.44,40.96 40.96,137.44 40.96,256C40.96,374.56 137.44,471.04 256,471.04C374.56,471.04 471.04,374.56 471.04,256C471.04,249.2 470.52,242.6 470.08,237.6C469.8,234 467.64,230.88 464.44,229.28C461.24,227.68 457.4,227.88 454.4,229.8C448.56,233.56 441.92,235.52 435.2,235.52C420.48,235.52 407.44,226.64 401.96,212.92C400.88,210.2 398.68,208.04 395.96,207.04C393.2,206.08 390.16,206.28 387.56,207.68C378.68,212.48 368.6,215.04 358.4,215.04C324.52,215.04 296.96,187.48 296.96,153.6C296.96,143.44 299.52,133.32 304.32,124.44C305.72,121.84 305.96,118.8 304.96,116.04C303.96,113.32 301.84,111.12 299.12,110.04C285.36,104.56 276.48,91.52 276.48,76.8C276.48,70.08 278.44,63.44 282.2,57.6C284.12,54.56 284.32,50.76 282.72,47.56C281.12,44.36 277.96,42.2 274.4,41.88C269,41.4 262.6,40.96 256,40.96ZM389.12,40.96C377.8,40.96 368.64,50.12 368.64,61.44C368.64,72.76 377.8,81.92 389.12,81.92C400.44,81.92 409.6,72.76 409.6,61.44C409.6,50.12 400.44,40.96 389.12,40.96ZM373.76,122.88C365.28,122.88 358.4,129.76 358.4,138.24C358.4,146.72 365.28,153.6 373.76,153.6C382.24,153.6 389.12,146.72 389.12,138.24C389.12,129.76 382.24,122.88 373.76,122.88ZM220.16,153.6C228.64,153.6 235.52,160.48 235.52,168.96C235.52,177.44 228.64,184.32 220.16,184.32C211.68,184.32 204.8,177.44 204.8,168.96C204.8,160.48 211.68,153.6 220.16,153.6ZM460.8,153.6C455.16,153.6 450.56,158.2 450.56,163.84C450.56,169.48 455.16,174.08 460.8,174.08C466.44,174.08 471.04,169.48 471.04,163.84C471.04,158.2 466.44,153.6 460.8,153.6ZM153.6,204.8C170.56,204.8 184.32,218.56 184.32,235.52C184.32,252.48 170.56,266.24 153.6,266.24C136.64,266.24 122.88,252.48 122.88,235.52C122.88,218.56 136.64,204.8 153.6,204.8ZM250.88,245.76C259.36,245.76 266.24,252.64 266.24,261.12C266.24,269.6 259.36,276.48 250.88,276.48C242.4,276.48 235.52,269.6 235.52,261.12C235.52,252.64 242.4,245.76 250.88,245.76ZM174.08,317.44C185.4,317.44 194.56,326.6 194.56,337.92C194.56,349.24 185.4,358.4 174.08,358.4C162.76,358.4 153.6,349.24 153.6,337.92C153.6,326.6 162.76,317.44 174.08,317.44ZM312.32,327.68C326.48,327.68 337.92,339.12 337.92,353.28C337.92,367.44 326.48,378.88 312.32,378.88C298.16,378.88 286.72,367.44 286.72,353.28C286.72,339.12 298.16,327.68 312.32,327.68Z" style="fill:rgb(58,55,55);fill-rule:nonzero;"/>
        </g>
    </g>
</svg>
