<?xml version="1.0" encoding="UTF-8" standalone="no"?>
<!DOCTYPE svg PUBLIC "-//W3C//DTD SVG 1.1//EN" "http://www.w3.org/Graphics/SVG/1.1/DTD/svg11.dtd">
<svg width="100%" height="100%" viewBox="0 0 607 81" version="1.1" xmlns="http://www.w3.org/2000/svg" xmlns:xlink="http://www.w3.org/1999/xlink" xml:space="preserve" xmlns:serif="http://www.serif.com/" style="fill-rule:evenodd;clip-rule:evenodd;stroke-miterlimit:10;">
    <g transform="matrix(1,0,0,1,-1481.83,-320.133)">
        <g transform="matrix(0.6007,0,0,0.579845,1406.89,-403.504)">
            <g>
                <g>
                    <path d="M778.6,1253.1L832.3,1253.1C866,1253.1 889.8,1270.4 889.8,1315.3C889.8,1352.6 872.5,1377.5 829.3,1377.5L778.6,1377.5L778.6,1253.1Z" style="fill:rgb(58,55,55);fill-rule:nonzero;stroke:black;stroke-width:1px;"/>
                </g>
                <g transform="matrix(0.732479,0,0,0.758824,125.44,908.703)">
                    <path d="M924.9,523L954.7,523C955.2,523 955.5,523 955.5,523.7L955.5,540.5C955.5,541 955.3,541.2 954.9,541.4C952.6,542.7 950.2,544.1 947.9,545.4C944.5,547.3 941,549 937.8,551.2C937.1,551.7 937,551.2 936.8,550.7C935.3,547.3 933.7,544 932.2,540.6C929.6,535 927,529.4 924.3,523.7C924,523.1 924.2,523 924.9,523ZM970.2,556.6C972.8,566.4 975.4,576.2 978,586C977.6,586.1 977.4,585.7 977.2,585.5C975.3,583.4 973.5,581.3 971.7,579.3C967.6,574.8 963.5,570.3 959.4,565.8C959,565.3 958.9,565.1 959.5,564.7C961.2,563.4 962.8,562.1 964.5,560.9C966.4,559.3 968.3,558 970.2,556.6ZM969.5,555.5C966.7,552.8 964,550.1 961.2,547.4C960.8,547 961,546.8 961.2,546.4C963.1,543.4 964.9,540.4 966.7,537.3C967.3,536.4 967.8,535.5 968.4,534.7C968.5,541.7 969.7,548.5 969.9,555.6C969.7,555.6 969.6,555.6 969.5,555.5ZM966.9,535.2C964.2,536.7 961.5,538.1 958.8,539.6C958.7,538.9 958.8,538.4 958.8,537.8L958.8,522.5C958.8,522 958.9,521.8 959.3,521.6C960.4,521.1 961.4,520.4 962.4,519.9C965.7,518.1 969,516.3 972.3,514.5C976.5,512.2 980.7,509.9 984.9,507.7C988.2,506 991.3,504.1 994.7,502.6C995.2,502.4 995.4,502.5 995.6,502.9C997.8,507.1 1000.6,510.8 1003.2,514.7C1003.5,515.2 1003.4,515.4 1002.9,515.6C1001.7,516.1 1000.5,516.6 999.4,517.2C993.8,520.2 988.2,523.3 982.6,526.4C977.5,529.3 972.2,532.3 966.9,535.2ZM966.8,555L946.6,569.5L938.5,553.7L954.7,544.7L966.8,555ZM932,590.1L927.4,590.1L927.4,590L932,590C933.3,590 934.5,589.9 935.8,590.1C934.5,590.5 933.3,590.1 932,590.1ZM936.4,590.2L936.4,590C940.8,589.9 945.3,590 949.5,590.2L936.4,590.2ZM978.1,589.5C977.9,589.9 977.6,589.7 977.3,589.7C965.3,589.7 953.3,589.6 941.3,589.6L927.6,589.6C927.8,589.4 927.8,589.3 927.9,589.2C930.8,586.9 933.7,584.6 936.6,582.3C939.4,580 942.4,577.9 945.3,575.7C949.1,572.8 953,569.8 956.8,566.9C957.4,566.5 957.7,566.6 958,567C959.5,568.8 961.1,570.6 962.6,572.3C964.5,574.5 966.5,576.6 968.5,578.8C971.5,582.1 974.6,585.5 977.7,588.8C977.9,589 978.2,589.2 978.1,589.5ZM978.4,590.6C978.4,590.4 978.3,590.2 978.4,590C978.8,588.2 979.2,586.4 980,584.7C980.5,583.7 981.1,583 981.9,582.3C985.4,579.5 989.2,577.3 992.9,574.8C993.4,574.5 993.9,574.3 994.6,573.9C988.9,579.5 982.7,584.1 978.4,590.6ZM1003,575.1C1002.8,575 1002.5,574.9 1002.4,574.8C998.2,572.3 993.9,569.9 989.7,567.4C986.5,565.5 983.3,563.6 980.1,561.8C977,560 973.8,558.2 970.7,556.4C970.3,556.2 970.4,556 970.5,555.7C971.5,553.4 972.8,551.1 974,548.9C976.1,544.9 978.2,541 980.4,537C981.1,535.8 981.6,534.4 982.7,533.5C984,532.4 985.3,531.3 986.7,530.3C990.1,527.6 993.6,524.9 996.9,522.1C999.1,520.2 1001.3,518.3 1003.5,516.3L1003.5,516.8C1002.9,520.6 1002.7,524.5 1002.5,528.4C1002.4,529.4 1002.1,529.6 1001.2,529.5C999.2,529.4 997.3,529.4 995.3,529.4C994.9,529.4 994.5,529.4 994.2,529.7C994.4,529.9 994.6,530 994.7,530C995.5,529.9 995.7,530.4 996.1,530.9C998.7,535.2 1001.3,539.6 1003.9,543.9C1004.7,545.2 1005.1,546.4 1004.9,547.9C1004.6,550.4 1004.4,553 1004.1,555.5C1003.7,560.1 1003.3,564.7 1003,569.4C1003,571.3 1002.4,573.2 1003,575.1ZM1008.6,574.8C1008.1,575.3 1007.6,575.8 1007.3,576.3C1007.1,576.7 1006.9,576.8 1006.4,576.5C1005.7,576 1004.9,575.6 1004.2,575.2C1004.1,575.1 1003.8,575.1 1003.8,574.8C1003.9,574.5 1004.1,574.5 1004.3,574.6C1005.1,574.7 1005.1,574.2 1005.2,573.7C1005.2,572.7 1005.3,571.7 1005.4,570.7C1005.6,568.5 1005.7,566.2 1005.9,564C1005.9,563.7 1005.9,563.3 1006.2,563.2C1006.7,562.9 1008.2,563.5 1008.4,564.2C1008.7,565.1 1008.7,566 1008.9,566.9C1009.3,568.5 1009.7,570.1 1009.8,572.3C1009.9,572.9 1009.5,573.9 1008.6,574.8ZM1006.9,551.5C1006.8,550.7 1007,550.7 1007.3,550.8C1008.1,551.2 1008.9,551.6 1009.7,552.1C1009.8,552.1 1009.9,552.2 1009.9,552.4C1010.1,553 1009.8,555.2 1009.6,555.7C1009,556.9 1008.3,557.9 1007.6,558.8C1007.5,559 1007.3,559.4 1007.1,559.2C1006.9,559 1006.9,558.6 1007,558.2C1006.9,556 1007.1,553.7 1006.9,551.5ZM1010.8,559.6C1010.3,560.7 1009.9,561.9 1009.7,563.4C1009.6,564 1009.5,563.9 1009.2,563.6C1008.9,563.1 1008.7,562.4 1008.5,561.8C1007.9,560.5 1007.9,560.5 1008.7,559.5C1008.9,559.2 1009.2,558.9 1009.4,558.6C1009.5,558.5 1009.5,558.4 1009.7,558.4C1010.1,558.6 1010.4,558.8 1010.8,559.1C1011,559.2 1010.9,559.4 1010.8,559.6ZM1013.6,542.1C1013.1,543 1012.6,543.9 1012.4,544.9C1012.3,545.1 1012.2,545.3 1012,545.4C1010.9,545.9 1009.9,546.7 1008.6,547C1006.5,547.5 1006.6,547.5 1005.7,545.3C1005.3,544.4 1005.6,544.2 1006.2,543.8C1007.5,543 1008.7,542.2 1010.1,541.3C1008.3,540.9 1006.6,540.5 1004.9,540.1C1004.6,540 1004.4,540 1004.3,539.6C1004,537.7 1003.6,535.8 1003.4,533.9C1003.3,532.8 1003.1,531.7 1003.1,530.6C1003.4,530.6 1003.6,530.8 1003.8,531C1005.3,532.5 1006.7,534 1008.2,535.5C1009.9,537.4 1011.8,539.1 1013.4,541.2C1013.6,541.4 1013.9,541.6 1013.6,542.1ZM1013.4,487.9C1011.6,488.8 1009.9,489.6 1008.1,490.5C1004.5,492.3 1000.8,494 997.2,495.8C996.7,496 996,496 995.9,495.4C995.8,494.6 995.4,494.7 994.9,494.7C992.1,494.8 989.3,494.9 986.5,495.1C982.6,495.3 978.8,495.5 974.9,495.8C973.4,495.9 972,496.1 970.6,496.2C972,495.6 973.4,495.1 974.8,494.8C980.8,493.7 986.8,492.5 992.8,491.3C998.4,490.2 1004,488.9 1009.6,487.6C1011.3,487.2 1013,486.7 1014.8,486.5C1014.5,487.2 1014,487.6 1013.4,487.9ZM1026.9,482C1023.7,483.5 1020.4,484.9 1017.2,486.3C1016.9,486.4 1016.8,486.3 1016.7,486.1C1016.3,485.4 1016.4,484.5 1017.3,483.7C1017.6,483.4 1017.9,483.2 1018,482.7C1017.6,482.6 1017.2,482.7 1016.9,482.8C1013,483.8 1009.1,484.7 1005.2,485.5C994,488 982.8,490.5 971.6,492.8C966.2,493.9 960.7,494.4 955.2,494.8C953.8,494.9 952.4,495 950.8,495.1C951.7,496.6 952.6,497.9 953.4,499.3C953.7,499.7 954.1,499.8 954.6,499.8C960.2,499.5 965.8,499.3 971.4,499C977.7,498.7 984,498.4 990.5,498.1C987.6,499.7 984.8,500.9 982.2,502.4C979.7,503.8 977.1,505 974.6,506.3C971.7,507.8 968.8,509.2 965.9,510.7C962.9,512.2 959.9,513.7 956.9,515.3C956.5,515.5 956.1,515.6 955.6,515.6C936.6,515.7 917.5,515.5 898.5,515.6C898.3,515.6 898,515.7 897.8,515.4C898.5,514.8 899.5,514.6 900.3,514.1C908,510.1 915.7,506 923.3,502C930.8,498.1 938.3,494.2 945.8,490.3C951.2,487.5 956.7,484.8 962.2,482.1C963.1,481.6 964,481.1 965.2,481.1C971,481.2 976.9,481.1 982.7,481.1L1026.9,481.1C1027.2,481.1 1027.7,480.9 1027.8,481.3C1027.7,481.9 1027.2,481.9 1026.9,482Z" style="fill:url(#_Linear1);fill-rule:nonzero;"/>
                </g>
                <g>
                    <path d="M900.4,1255.1L981.7,1255.1L981.7,1279.8L930.8,1279.8L930.8,1301.9L979.4,1301.9L979.4,1324.2L930.8,1324.2L930.8,1347L982.8,1347L982.8,1371.7L900.4,1371.7L900.4,1255.1Z" style="fill:rgb(58,55,55);fill-rule:nonzero;stroke:black;stroke-width:1px;"/>
                    <path d="M1001.5,1255.1L1082.8,1255.1L1082.8,1283.6L1031.9,1283.6L1031.9,1304.8L1076.4,1304.8L1076.4,1329.5L1031.9,1329.5L1031.9,1371.7L1001.5,1371.7L1001.5,1255.1Z" style="fill:rgb(58,55,55);fill-rule:nonzero;stroke:black;stroke-width:1px;"/>
                    <rect x="1099.3" y="1255.1" width="30.4" height="116.7" style="fill:rgb(58,55,55);fill-rule:nonzero;stroke:black;stroke-width:1px;"/>
                </g>
            </g>
            <g>
                <path d="M164.9,1286.7L129.7,1286.7L129.7,1256.9L232,1256.9L232,1286.7L196.9,1286.7L196.9,1379L164.9,1379L164.9,1286.7Z" style="fill:rgb(58,55,55);fill-rule:nonzero;stroke:black;stroke-width:1px;"/>
                <path d="M247.2,1256.9L332.3,1256.9L332.3,1282.8L279,1282.8L279,1305.9L329.9,1305.9L329.9,1329.2L279,1329.2L279,1353.1L333.4,1353.1L333.4,1379L247.2,1379L247.2,1256.9Z" style="fill:rgb(58,55,55);fill-rule:nonzero;stroke:black;stroke-width:1px;"/>
                <path d="M380.9,1256.9L424.2,1256.9L463.8,1379L431.8,1379L424.4,1354.6L380.6,1354.6L373.4,1379L341.4,1379L380.9,1256.9ZM416.6,1328.7L410.7,1309.1C408.1,1300.8 405.9,1293.4 403.1,1283.8L401.8,1283.8C398.7,1295.1 397.2,1299.7 394,1309.9L388.4,1328.8L416.6,1328.8L416.6,1328.7Z" style="fill:rgb(58,55,55);fill-rule:nonzero;stroke:black;stroke-width:1px;"/>
                <path d="M467.3,1317.7C467.3,1279.4 483.9,1253.9 525.9,1253.9C539.8,1253.9 554.8,1256.7 568.6,1263.7L568.6,1292C556.6,1286.1 543.8,1282.6 531.2,1282.6C512.5,1282.6 499.9,1292.4 499.9,1317.4C499.9,1339 509.2,1353.3 532.5,1353.3C543.2,1353.3 555.8,1350.9 570.2,1344.1L570.2,1371.9C559.8,1377.6 545,1382.1 526.5,1382.1C491.4,1381.9 467.3,1364 467.3,1317.7Z" style="fill:rgb(58,55,55);fill-rule:nonzero;stroke:black;stroke-width:1px;"/>
                <path d="M662.9,1333.6L620,1333.6L620,1378.9L588.2,1378.9L588.2,1256.8L620,1256.8L620,1305.1L662.9,1305.1L662.9,1256.8L694.9,1256.8L694.9,1379L662.9,1379L662.9,1333.6Z" style="fill:rgb(58,55,55);fill-rule:nonzero;stroke:black;stroke-width:1px;"/>
            </g>
            <g>
                <path d="M705.1,1377.9L705.1,1358.7C715.2,1355 724,1351.9 732.6,1349.1C738,1347.3 742.9,1346.2 748.3,1345L748.3,1344.4C743,1343.2 738.1,1342.1 732.8,1340.3C724.1,1337.5 715.3,1334.3 705.1,1330.6L705.1,1311.4L769.3,1311.4L769.3,1328.2C756,1328.2 748.7,1328.6 733.8,1326.8L733.8,1327.4C747.5,1331.3 757.7,1335.1 769.3,1338.9L769.3,1350.4C757.7,1354.2 747.5,1357.9 733.8,1361.8L733.8,1362.4C748.6,1360.7 756,1361.1 769.3,1361.1L769.3,1377.8L705.1,1377.8L705.1,1377.9Z" style="fill:rgb(58,55,55);fill-rule:nonzero;stroke:black;stroke-width:1px;"/>
                <path d="M705.1,1298.9L705.1,1254.1L718.7,1254.1L718.7,1282.1L730.9,1282.1L730.9,1255.3L743.2,1255.3L743.2,1282.1L755.8,1282.1L755.8,1253.5L769.4,1253.5L769.4,1298.8L705.1,1298.8L705.1,1298.9Z" style="fill:rgb(58,55,55);fill-rule:nonzero;stroke:black;stroke-width:1px;"/>
            </g>
        </g>
    </g>
    <defs>
        <linearGradient id="_Linear1" x1="0" y1="0" x2="1" y2="0" gradientUnits="userSpaceOnUse" gradientTransform="matrix(128.883,0,0,128.883,898.917,526.717)"><stop offset="0" style="stop-color:rgb(38,175,230);stop-opacity:1"/><stop offset="0.3" style="stop-color:rgb(153,137,255);stop-opacity:1"/><stop offset="0.72" style="stop-color:rgb(250,174,242);stop-opacity:1"/><stop offset="1" style="stop-color:rgb(254,61,206);stop-opacity:1"/></linearGradient>
    </defs>
</svg>
