<?xml version="1.0" encoding="UTF-8" standalone="no"?>
<!DOCTYPE svg PUBLIC "-//W3C//DTD SVG 1.1//EN" "http://www.w3.org/Graphics/SVG/1.1/DTD/svg11.dtd">
<svg width="100%" height="100%" viewBox="0 0 177 177" version="1.1" xmlns="http://www.w3.org/2000/svg" xmlns:xlink="http://www.w3.org/1999/xlink" xml:space="preserve" xmlns:serif="http://www.serif.com/" style="fill-rule:evenodd;clip-rule:evenodd;stroke-linejoin:round;stroke-miterlimit:2;">
    <g transform="matrix(1,0,0,1,-2577.63,-3072.84)">
        <path d="M2754.63,3084.98C2754.63,3078.28 2749.19,3072.85 2742.49,3072.85L2589.77,3072.85C2583.07,3072.85 2577.63,3078.28 2577.63,3084.98L2577.63,3237.71C2577.63,3244.41 2583.07,3249.85 2589.77,3249.85L2742.49,3249.85C2749.19,3249.85 2754.63,3244.41 2754.63,3237.71L2754.63,3084.98ZM2655.87,3236.35L2655.87,3215.72L2676.49,3215.72L2676.49,3236.35L2655.87,3236.35ZM2656.97,3200.03C2656.91,3197.61 2656.88,3195.8 2656.88,3194.59C2656.88,3187.49 2657.88,3181.35 2659.89,3176.18C2661.37,3172.29 2663.75,3168.37 2667.04,3164.41C2669.45,3161.53 2673.79,3157.32 2680.06,3151.79C2686.34,3146.25 2690.41,3141.84 2692.29,3138.56C2694.16,3135.27 2695.1,3131.68 2695.1,3127.79C2695.1,3120.75 2692.35,3114.56 2686.86,3109.23C2681.36,3103.9 2674.62,3101.23 2666.63,3101.23C2658.92,3101.23 2652.48,3103.65 2647.32,3108.48C2642.15,3113.31 2638.77,3120.85 2637.16,3131.11L2618.55,3128.9C2620.22,3115.15 2625.2,3104.62 2633.48,3097.31C2641.77,3090 2652.72,3086.35 2666.33,3086.35C2680.75,3086.35 2692.25,3090.27 2700.84,3098.12C2709.42,3105.96 2713.72,3115.45 2713.72,3126.59C2713.72,3133.03 2712.21,3138.96 2709.19,3144.39C2706.17,3149.83 2700.27,3156.43 2691.48,3164.21C2685.58,3169.44 2681.72,3173.3 2679.91,3175.78C2678.1,3178.26 2676.76,3181.11 2675.89,3184.33C2675.02,3187.55 2674.51,3192.78 2674.38,3200.03L2656.97,3200.03Z" style="fill:white;"/>
    </g>
</svg>
