<?xml version="1.0" encoding="UTF-8" standalone="no"?>
<!DOCTYPE svg PUBLIC "-//W3C//DTD SVG 1.1//EN" "http://www.w3.org/Graphics/SVG/1.1/DTD/svg11.dtd">
<svg width="100%" height="100%" viewBox="0 0 177 177" version="1.1" xmlns="http://www.w3.org/2000/svg" xmlns:xlink="http://www.w3.org/1999/xlink" xml:space="preserve" xmlns:serif="http://www.serif.com/" style="fill-rule:evenodd;clip-rule:evenodd;stroke-linejoin:round;stroke-miterlimit:2;">
    <g transform="matrix(1,0,0,1,-2340.63,-3072.84)">
        <path d="M2517.63,3084.98C2517.63,3078.28 2512.19,3072.85 2505.49,3072.85L2352.77,3072.85C2346.07,3072.85 2340.63,3078.28 2340.63,3084.98L2340.63,3237.71C2340.63,3244.41 2346.07,3249.85 2352.77,3249.85L2505.49,3249.85C2512.19,3249.85 2517.63,3244.41 2517.63,3237.71L2517.63,3084.98ZM2418.87,3236.35L2418.87,3215.72L2439.49,3215.72L2439.49,3236.35L2418.87,3236.35ZM2419.97,3200.03C2419.91,3197.61 2419.88,3195.8 2419.88,3194.59C2419.88,3187.49 2420.88,3181.35 2422.89,3176.18C2424.37,3172.29 2426.75,3168.37 2430.04,3164.41C2432.45,3161.53 2436.79,3157.32 2443.06,3151.79C2449.34,3146.25 2453.41,3141.84 2455.29,3138.56C2457.16,3135.27 2458.1,3131.68 2458.1,3127.79C2458.1,3120.75 2455.35,3114.56 2449.86,3109.23C2444.36,3103.9 2437.62,3101.23 2429.63,3101.23C2421.92,3101.23 2415.48,3103.65 2410.32,3108.48C2405.15,3113.31 2401.77,3120.85 2400.16,3131.11L2381.55,3128.9C2383.22,3115.15 2388.2,3104.62 2396.48,3097.31C2404.77,3090 2415.72,3086.35 2429.33,3086.35C2443.75,3086.35 2455.25,3090.27 2463.84,3098.12C2472.42,3105.96 2476.72,3115.45 2476.72,3126.59C2476.72,3133.03 2475.21,3138.96 2472.19,3144.39C2469.17,3149.83 2463.27,3156.43 2454.48,3164.21C2448.58,3169.44 2444.72,3173.3 2442.91,3175.78C2441.1,3178.26 2439.76,3181.11 2438.89,3184.33C2438.02,3187.55 2437.51,3192.78 2437.38,3200.03L2419.97,3200.03Z" style="fill:rgb(58,55,55);"/>
    </g>
</svg>
