<?xml version="1.0" encoding="UTF-8" standalone="no"?>
<!DOCTYPE svg PUBLIC "-//W3C//DTD SVG 1.1//EN" "http://www.w3.org/Graphics/SVG/1.1/DTD/svg11.dtd">
<svg width="100%" height="100%" viewBox="0 0 132 143" version="1.1" xmlns="http://www.w3.org/2000/svg" xmlns:xlink="http://www.w3.org/1999/xlink" xml:space="preserve" xmlns:serif="http://www.serif.com/" style="fill-rule:evenodd;clip-rule:evenodd;stroke-linejoin:round;stroke-miterlimit:2;">
    <g transform="matrix(1,0,0,1,-1952.48,-3049.28)">
        <g transform="matrix(0.321934,0,0,0.321934,1936,3038.29)">
            <path d="M238.933,34.133L238.933,173.067C268.322,180.678 290.133,207.155 290.133,238.933C290.133,249.702 287.421,259.771 282.967,268.833L327.6,307.733C329.273,307.375 331.008,307.2 332.8,307.2C346.931,307.2 358.4,318.669 358.4,332.8C358.4,346.931 346.931,358.4 332.8,358.4C319.573,358.4 308.798,348.319 307.467,335.433L260.867,294.833C245.353,305.688 225.25,310.413 203.9,304.867C180.024,298.689 160.895,278.964 155.433,254.9C146.661,216.329 170.598,181.941 204.8,173.067L204.8,37.367C117.436,53.443 51.2,129.86 51.2,221.867C51.2,290.577 89.624,337.862 114.9,361.533C128.724,374.47 136.533,392.44 136.533,411.367L136.533,477.867L307.2,477.867L307.2,451.267C307.2,436.572 316.59,423.542 330.533,418.9L374.6,404.233C395.507,397.236 409.6,377.666 409.6,355.633L409.6,302.833L448.3,289.5C455.661,287.456 460.795,280.706 460.8,273.067C460.788,269.141 459.422,265.337 456.933,262.3L456.467,261.733C456.304,261.541 456.137,261.352 455.967,261.167L408.933,204.767C401.98,109.11 336.842,34.133 238.933,34.133ZM221.867,204.8C203.142,204.8 187.733,220.208 187.733,238.933C187.733,257.658 203.142,273.067 221.867,273.067C240.592,273.067 256,257.658 256,238.933C256,220.208 240.592,204.8 221.867,204.8Z" style="fill:rgb(58,55,55);fill-rule:nonzero;"/>
        </g>
    </g>
</svg>
