<?xml version="1.0" encoding="UTF-8" standalone="no"?>
<!DOCTYPE svg PUBLIC "-//W3C//DTD SVG 1.1//EN" "http://www.w3.org/Graphics/SVG/1.1/DTD/svg11.dtd">
<svg width="100%" height="100%" viewBox="0 0 100 100" version="1.1" xmlns="http://www.w3.org/2000/svg" xmlns:xlink="http://www.w3.org/1999/xlink" xml:space="preserve" xmlns:serif="http://www.serif.com/" style="fill-rule:evenodd;clip-rule:evenodd;stroke-linejoin:round;stroke-miterlimit:2;">
    <g transform="matrix(1,0,0,1,-1482,-2264)">
        <g transform="matrix(1,0,0,1,259,0)">
            <path d="M1323,2289C1323,2275.2 1311.8,2264 1298,2264L1248,2264C1234.2,2264 1223,2275.2 1223,2289L1223,2339C1223,2352.8 1234.2,2364 1248,2364L1298,2364C1311.8,2364 1323,2352.8 1323,2339L1323,2289ZM1257,2301.5C1263.9,2301.5 1269.5,2307.1 1269.5,2314C1269.5,2320.9 1263.9,2326.5 1257,2326.5C1250.1,2326.5 1244.5,2320.9 1244.5,2314C1244.5,2307.1 1250.1,2301.5 1257,2301.5ZM1289,2301.5C1295.9,2301.5 1301.5,2307.1 1301.5,2314C1301.5,2320.9 1295.9,2326.5 1289,2326.5C1282.1,2326.5 1276.5,2320.9 1276.5,2314C1276.5,2307.1 1282.1,2301.5 1289,2301.5Z" style="fill:url(#_Linear1);"/>
        </g>
    </g>
    <defs>
        <linearGradient id="_Linear1" x1="0" y1="0" x2="1" y2="0" gradientUnits="userSpaceOnUse" gradientTransform="matrix(96.3649,0,0,114.354,1223.84,2195.52)"><stop offset="0" style="stop-color:rgb(38,175,230);stop-opacity:1"/><stop offset="0.3" style="stop-color:rgb(153,137,255);stop-opacity:1"/><stop offset="0.72" style="stop-color:rgb(250,174,242);stop-opacity:1"/><stop offset="1" style="stop-color:rgb(254,61,206);stop-opacity:1"/></linearGradient>
    </defs>
</svg>
