<?xml version="1.0" encoding="UTF-8" standalone="no"?>
<!DOCTYPE svg PUBLIC "-//W3C//DTD SVG 1.1//EN" "http://www.w3.org/Graphics/SVG/1.1/DTD/svg11.dtd">
<svg width="100%" height="100%" viewBox="0 0 100 100" version="1.1" xmlns="http://www.w3.org/2000/svg" xmlns:xlink="http://www.w3.org/1999/xlink" xml:space="preserve" xmlns:serif="http://www.serif.com/" style="fill-rule:evenodd;clip-rule:evenodd;stroke-linejoin:round;stroke-miterlimit:2;">
    <g transform="matrix(1,0,0,1,-1482,-2155)">
        <g transform="matrix(1,0,0,1,259,0)">
            <path d="M1323,2180C1323,2166.2 1311.8,2155 1298,2155L1248,2155C1234.2,2155 1223,2166.2 1223,2180L1223,2230C1223,2243.8 1234.2,2255 1248,2255L1298,2255C1311.8,2255 1323,2243.8 1323,2230L1323,2180ZM1273,2192.5C1279.9,2192.5 1285.5,2198.1 1285.5,2205C1285.5,2211.9 1279.9,2217.5 1273,2217.5C1266.1,2217.5 1260.5,2211.9 1260.5,2205C1260.5,2198.1 1266.1,2192.5 1273,2192.5Z" style="fill:url(#_Linear1);"/>
        </g>
    </g>
    <defs>
        <linearGradient id="_Linear1" x1="0" y1="0" x2="1" y2="0" gradientUnits="userSpaceOnUse" gradientTransform="matrix(96.3649,0,0,114.354,1223.84,2195.52)"><stop offset="0" style="stop-color:rgb(38,175,230);stop-opacity:1"/><stop offset="0.3" style="stop-color:rgb(153,137,255);stop-opacity:1"/><stop offset="0.72" style="stop-color:rgb(250,174,242);stop-opacity:1"/><stop offset="1" style="stop-color:rgb(254,61,206);stop-opacity:1"/></linearGradient>
    </defs>
</svg>
