<?xml version="1.0" encoding="UTF-8" standalone="no"?>
<!DOCTYPE svg PUBLIC "-//W3C//DTD SVG 1.1//EN" "http://www.w3.org/Graphics/SVG/1.1/DTD/svg11.dtd">
<svg width="100%" height="100%" viewBox="0 0 100 100" version="1.1" xmlns="http://www.w3.org/2000/svg" xmlns:xlink="http://www.w3.org/1999/xlink" xml:space="preserve" xmlns:serif="http://www.serif.com/" style="fill-rule:evenodd;clip-rule:evenodd;stroke-linejoin:round;stroke-miterlimit:2;">
    <g transform="matrix(1,0,0,1,-1482,-2373)">
        <g transform="matrix(1,0,0,1,259,0)">
            <path d="M1323,2398C1323,2384.2 1311.8,2373 1298,2373L1248,2373C1234.2,2373 1223,2384.2 1223,2398L1223,2448C1223,2461.8 1234.2,2473 1248,2473L1298,2473C1311.8,2473 1323,2461.8 1323,2448L1323,2398ZM1273,2410.5C1279.9,2410.5 1285.5,2416.1 1285.5,2423C1285.5,2429.9 1279.9,2435.5 1273,2435.5C1266.1,2435.5 1260.5,2429.9 1260.5,2423C1260.5,2416.1 1266.1,2410.5 1273,2410.5ZM1303,2410.5C1309.9,2410.5 1315.5,2416.1 1315.5,2423C1315.5,2429.9 1309.9,2435.5 1303,2435.5C1296.1,2435.5 1290.5,2429.9 1290.5,2423C1290.5,2416.1 1296.1,2410.5 1303,2410.5ZM1243,2410.5C1249.9,2410.5 1255.5,2416.1 1255.5,2423C1255.5,2429.9 1249.9,2435.5 1243,2435.5C1236.1,2435.5 1230.5,2429.9 1230.5,2423C1230.5,2416.1 1236.1,2410.5 1243,2410.5Z" style="fill:url(#_Linear1);"/>
        </g>
    </g>
    <defs>
        <linearGradient id="_Linear1" x1="0" y1="0" x2="1" y2="0" gradientUnits="userSpaceOnUse" gradientTransform="matrix(96.3649,0,0,114.354,1223.84,2195.52)"><stop offset="0" style="stop-color:rgb(38,175,230);stop-opacity:1"/><stop offset="0.3" style="stop-color:rgb(153,137,255);stop-opacity:1"/><stop offset="0.72" style="stop-color:rgb(250,174,242);stop-opacity:1"/><stop offset="1" style="stop-color:rgb(254,61,206);stop-opacity:1"/></linearGradient>
    </defs>
</svg>
