<?xml version="1.0" encoding="UTF-8" standalone="no"?>
<!DOCTYPE svg PUBLIC "-//W3C//DTD SVG 1.1//EN" "http://www.w3.org/Graphics/SVG/1.1/DTD/svg11.dtd">
<svg width="100%" height="100%" viewBox="0 0 1500 1500" version="1.1" xmlns="http://www.w3.org/2000/svg" xmlns:xlink="http://www.w3.org/1999/xlink" xml:space="preserve" xmlns:serif="http://www.serif.com/" style="fill-rule:evenodd;clip-rule:evenodd;stroke-linecap:round;stroke-linejoin:round;">
    <rect x="0" y="0" width="1500" height="1500" style="fill:url(#_Radial1);"/>
    <g id="Logos" transform="matrix(0.109336,0,0,0.109336,1137.76,587.205)">
        <g transform="matrix(0.759642,0,0,0.759642,-4521.65,5096.76)">
            <path id="path7" d="M249,0C149.9,0 69.7,80.2 69.7,179.3L69.7,246.5C34.9,252.8 0,261.2 0,272.1L0,622.8C0,622.8 0,632.5 10.9,637.1C50.4,653.1 205.8,708.1 241.5,720.7C246.1,722.4 247.4,722.4 248.6,722.4C250.3,722.4 251.1,722.4 255.7,720.7C291.4,708.1 447.2,653.1 486.7,637.1C496.8,632.9 497.2,623.2 497.2,623.2L497.2,272.1C497.2,261.2 462.8,252.4 427.9,246.5L427.9,179.3C428.4,80.2 347.7,0 249,0ZM249,85.7C307.4,85.7 342.7,121 342.7,179.4L342.7,237.8C277.2,233.2 221.3,233.2 155.4,237.8L155.4,179.4C155.4,120.9 190.7,85.7 249,85.7ZM248.6,323.8C330.1,323.8 398.5,330.1 398.5,341.4L398.5,560.2C398.5,563.6 398.1,564 395.1,565.2C392.2,566.5 256.1,615.6 256.1,615.6C256.1,615.6 250.6,617.3 249,617.3C247.3,617.3 241.9,615.2 241.9,615.2C241.9,615.2 105.8,566.1 102.9,564.8C100,563.5 99.5,563.1 99.5,559.8L99.5,341C98.7,329.7 167.1,323.8 248.6,323.8Z" style="fill-rule:nonzero;"/>
            <g id="g3222" transform="matrix(0.95575,0,0,0.95575,91.363,-287.434)">
                <path id="path13" d="M666.6,890L666.6,639.3L575,639.3L575,549.4L860.6,549.4L860.6,639.3L769.9,639.3L769.9,890L666.6,890Z" style="fill-rule:nonzero;"/>
                <path id="path15" d="M1092,890L1045,782.9L1007.6,782.9L1007.6,890L904.3,890L904.3,549.4L1086.1,549.4C1165.9,549.4 1208.7,602.3 1208.7,666.1C1208.7,724.9 1174.7,756 1147.4,769.4L1209.1,889.9L1092,889.9L1092,890ZM1104.2,666.1C1104.2,647.6 1087.8,639.6 1070.6,639.6L1007.6,639.6L1007.6,693.4L1070.6,693.4C1087.8,693 1104.2,685 1104.2,666.1Z" style="fill-rule:nonzero;"/>
                <path id="path17" d="M1262.9,890L1262.9,549.4L1521.2,549.4L1521.2,639.3L1365.8,639.3L1365.8,672.9L1517.4,672.9L1517.4,762.8L1365.8,762.8L1365.8,800.2L1521.2,800.2L1521.2,890L1262.9,890Z" style="fill-rule:nonzero;"/>
                <path id="path19" d="M1574.9,890.4L1574.9,808.5L1704.7,639.7L1574.9,639.7L1574.9,549.8L1840.7,549.8L1840.7,630.9L1710.5,800.6L1844.5,800.6L1844.5,890.5L1574.9,890.4Z" style="fill-rule:nonzero;"/>
                <path id="path21" d="M1869.7,720.3C1869.7,615.7 1950.8,543.9 2056.2,543.9C2161.2,543.9 2242.7,615.3 2242.7,720.3C2242.7,824.9 2161.6,896.3 2056.2,896.3C1950.8,896.3 1869.7,824.9 1869.7,720.3ZM2137.7,720.3C2137.7,672.8 2105.4,635 2055.8,635C2006.2,635 1973.9,672.8 1973.9,720.3C1973.9,767.8 2006.2,805.6 2055.8,805.6C2105.8,805.6 2137.7,767.8 2137.7,720.3Z" style="fill-rule:nonzero;"/>
                <path id="path23" d="M2473.6,890.4L2426.6,783.3L2389.2,783.3L2389.2,890.4L2285.9,890.4L2285.9,549.8L2467.7,549.8C2547.5,549.8 2590.3,602.7 2590.3,666.5C2590.3,725.3 2556.3,756.4 2529,769.8L2590.7,890.3L2473.6,890.3L2473.6,890.4ZM2486.2,666.1C2486.2,647.6 2469.8,639.6 2452.6,639.6L2389.6,639.6L2389.6,693.4L2452.6,693.4C2469.9,693 2486.2,685 2486.2,666.1Z" style="fill-rule:nonzero;"/>
            </g>
        </g>
        <g transform="matrix(4.28723,0,0,4.28723,-2210.07,6747.94)">
            <path d="M327.629,119.94L327.629,127.998L382.998,127.998L382.998,91.655L374.931,91.655L374.931,119.94L327.629,119.94ZM327.629,0L327.629,8.058L374.931,8.058L374.931,36.345L382.998,36.345L382.998,0L327.629,0ZM299.075,62.341L299.075,43.616L311.731,43.616C317.901,43.616 320.116,45.67 320.116,51.28L320.116,54.598C320.116,60.366 317.98,62.341 311.731,62.341L299.075,62.341ZM319.165,65.659C324.939,64.158 328.972,58.784 328.972,52.386C328.972,48.356 327.391,44.721 324.385,41.797C320.589,38.162 315.525,36.345 308.961,36.345L291.164,36.345L291.164,91.653L299.075,91.653L299.075,69.61L310.94,69.61C317.03,69.61 319.483,72.138 319.483,78.46L319.483,91.655L327.55,91.655L327.55,79.724C327.55,71.033 325.494,67.715 319.165,66.766L319.165,65.659ZM252.565,67.476L276.928,67.476L276.928,60.207L252.565,60.207L252.565,43.614L279.3,43.614L279.3,36.345L244.496,36.345L244.496,91.653L280.487,91.653L280.487,84.384L252.565,84.384L252.565,67.476ZM226.065,70.4L226.065,74.192C226.065,82.172 223.138,84.78 215.783,84.78L214.043,84.78C206.685,84.78 203.126,82.409 203.126,71.426L203.126,56.572C203.126,45.511 206.844,43.218 214.2,43.218L215.781,43.218C222.979,43.218 225.273,45.905 225.351,53.332L234.052,53.332C233.262,42.428 225.985,35.556 215.069,35.556C209.77,35.556 205.34,37.215 202.018,40.375C197.035,45.037 194.266,52.938 194.266,63.999C194.266,74.666 196.64,82.568 201.543,87.465C204.865,90.704 209.454,92.443 213.962,92.443C218.708,92.443 223.06,90.546 225.273,86.438L226.379,86.438L226.379,91.653L233.656,91.653L233.656,63.131L212.22,63.131L212.22,70.4L226.065,70.4ZM156.301,43.614L164.924,43.614C173.072,43.614 177.502,45.668 177.502,56.73L177.502,71.268C177.502,82.329 173.072,84.384 164.924,84.384L156.301,84.384L156.301,43.614ZM165.634,91.655C180.743,91.655 186.358,80.198 186.358,64.001C186.358,47.567 180.346,36.347 165.475,36.347L148.389,36.347L148.389,91.655L165.634,91.655ZM110.186,67.476L134.549,67.476L134.549,60.207L110.186,60.207L110.186,43.614L136.921,43.614L136.921,36.345L102.116,36.345L102.116,91.653L138.108,91.653L138.108,84.384L110.186,84.384L110.186,67.476ZM63.518,36.345L55.45,36.345L55.45,91.653L91.836,91.653L91.836,84.384L63.518,84.384L63.518,36.345ZM0,91.655L0,128L55.37,128L55.37,119.94L8.067,119.94L8.067,91.655L0,91.655ZM0,0L0,36.345L8.067,36.345L8.067,8.058L55.37,8.058L55.37,0L0,0Z" style="fill-rule:nonzero;"/>
        </g>
        <g transform="matrix(2.28652,0,0,2.28652,-6538.91,3203.52)">
            <g>
                <path d="M1276.6,240.7C1269.8,236.2 1262.3,233 1255.2,229C1250.6,226.4 1245.7,224.1 1241.7,220.8C1234.9,215.2 1236.3,204.2 1243.4,199.4C1253.6,192.6 1270.5,196.4 1272.3,210.3C1272.3,210.6 1272.6,210.8 1272.9,210.8L1288.3,210.8C1288.7,210.8 1289,210.5 1288.9,210.1C1288.1,200.5 1284.4,192.5 1277.6,187.4C1271.1,182.5 1263.7,179.9 1255.8,179.9C1215.1,179.9 1211.4,223 1233.3,236.6C1235.8,238.2 1257.3,249 1264.9,253.7C1272.5,258.4 1274.9,267 1271.6,273.8C1268.6,280 1260.8,284.3 1253,283.8C1244.5,283.3 1237.9,278.7 1235.6,271.5C1235.2,270.2 1235,267.7 1235,266.6C1235,266.3 1234.7,266 1234.4,266L1217.7,266C1217.4,266 1217.1,266.3 1217.1,266.6C1217.1,278.7 1220.1,285.4 1228.3,291.5C1236,297.3 1244.4,299.7 1253.1,299.7C1275.9,299.7 1287.7,286.8 1290.1,273.4C1292.2,260.3 1288.3,248.5 1276.6,240.7Z" style="fill:rgb(22,22,22);fill-rule:nonzero;"/>
                <path d="M561.3,182.1L536,182.1C535.7,182.1 535.5,182.3 535.4,182.5L521.7,227.7C521.5,228.3 520.7,228.3 520.5,227.7L506.8,182.5C506.7,182.2 506.5,182.1 506.2,182.1L480.7,182.1C480.4,182.1 480.1,182.4 480.1,182.7L480.1,298.1C480.1,298.4 480.4,298.7 480.7,298.7L497.4,298.7C497.7,298.7 498,298.4 498,298.1L498,210.4C498,209.7 499,209.6 499.2,210.2L513,255.7L514,258.9C514.1,259.2 514.3,259.3 514.6,259.3L527.4,259.3C527.7,259.3 527.9,259.1 528,258.9L529,255.7L542.8,210.2C543,209.5 544,209.7 544,210.4L544,298.1C544,298.4 544.3,298.7 544.6,298.7L561.3,298.7C561.6,298.7 561.9,298.4 561.9,298.1L561.9,182.7C561.9,182.4 561.6,182.1 561.3,182.1Z" style="fill:rgb(22,22,22);fill-rule:nonzero;"/>
                <path d="M1020.9,182.1C1020.6,182.1 1020.4,182.3 1020.3,182.5L1006.6,227.7C1006.4,228.3 1005.6,228.3 1005.4,227.7L991.7,182.5C991.6,182.2 991.4,182.1 991.1,182.1L965.7,182.1C965.4,182.1 965.1,182.4 965.1,182.7L965.1,298.1C965.1,298.4 965.4,298.7 965.7,298.7L982.4,298.7C982.7,298.7 983,298.4 983,298.1L983,210.4C983,209.7 984,209.6 984.2,210.2L998,255.7L999,258.9C999.1,259.2 999.3,259.3 999.6,259.3L1012.4,259.3C1012.7,259.3 1012.9,259.1 1013,258.9L1014,255.7L1027.8,210.2C1028,209.5 1029,209.7 1029,210.4L1029,298.1C1029,298.4 1029.3,298.7 1029.6,298.7L1046.3,298.7C1046.6,298.7 1046.9,298.4 1046.9,298.1L1046.9,182.7C1046.9,182.4 1046.6,182.1 1046.3,182.1L1020.9,182.1Z" style="fill:rgb(22,22,22);fill-rule:nonzero;"/>
                <path d="M805.5,182.1L726.6,182.1C726.3,182.1 726,182.4 726,182.7L726,197.1C726,197.4 726.3,197.7 726.6,197.7L757.1,197.7L757.1,298.1C757.1,298.4 757.4,298.7 757.7,298.7L774.4,298.7C774.7,298.7 775,298.4 775,298.1L775,197.7L805.5,197.7C805.8,197.7 806.1,197.4 806.1,197.1L806.1,182.7C806.1,182.4 805.9,182.1 805.5,182.1Z" style="fill:rgb(22,22,22);fill-rule:nonzero;"/>
                <path d="M904,298.7L919.2,298.7C919.6,298.7 919.9,298.3 919.8,297.9L888.4,182.1C888.3,181.8 888.1,181.7 887.8,181.7L866,181.7C865.7,181.7 865.5,181.9 865.4,182.1L834,297.9C833.9,298.3 834.2,298.7 834.6,298.7L849.8,298.7C850.1,298.7 850.3,298.5 850.4,298.3L859.5,264.6C859.6,264.3 859.8,264.2 860.1,264.2L893.7,264.2C894,264.2 894.2,264.4 894.3,264.6L903.4,298.3C903.5,298.5 903.8,298.7 904,298.7ZM864.1,247.7L876.3,202.6C876.5,202 877.3,202 877.5,202.6L889.7,247.7C889.8,248.1 889.5,248.5 889.1,248.5L864.7,248.5C864.3,248.5 864,248.1 864.1,247.7Z" style="fill:rgb(22,22,22);fill-rule:nonzero;"/>
                <path d="M1163.2,298.7L1178.4,298.7C1178.8,298.7 1179.1,298.3 1179,297.9L1147.6,182.1C1147.5,181.8 1147.3,181.7 1147,181.7L1125.2,181.7C1124.9,181.7 1124.7,181.9 1124.6,182.1L1093.2,297.9C1093.1,298.3 1093.4,298.7 1093.8,298.7L1109,298.7C1109.3,298.7 1109.5,298.5 1109.6,298.3L1118.7,264.6C1118.8,264.3 1119,264.2 1119.3,264.2L1152.9,264.2C1153.2,264.2 1153.4,264.4 1153.5,264.6L1162.6,298.3C1162.7,298.5 1162.9,298.7 1163.2,298.7ZM1123.3,247.7L1135.5,202.6C1135.7,202 1136.5,202 1136.7,202.6L1148.9,247.7C1149,248.1 1148.7,248.5 1148.3,248.5L1123.9,248.5C1123.5,248.5 1123.2,248.1 1123.3,247.7Z" style="fill:rgb(22,22,22);fill-rule:nonzero;"/>
                <path d="M629.7,281.6L629.7,245.8C629.7,245.5 630,245.2 630.3,245.2L674.8,245.2C675.1,245.2 675.4,244.9 675.4,244.6L675.4,230.2C675.4,229.9 675.1,229.6 674.8,229.6L630.3,229.6C630,229.6 629.7,229.3 629.7,229L629.7,198.4C629.7,198.1 630,197.8 630.3,197.8L680.9,197.8C681.2,197.8 681.5,197.5 681.5,197.2L681.5,182.8C681.5,182.5 681.2,182.2 680.9,182.2L612.4,182.2C612.1,182.2 611.8,182.5 611.8,182.8L611.8,298.1C611.8,298.4 612.1,298.7 612.4,298.7L683,298.7C683.3,298.7 683.6,298.4 683.6,298.1L683.6,282.9C683.6,282.6 683.3,282.3 683,282.3L630.2,282.3C629.9,282.2 629.7,282 629.7,281.6Z" style="fill:rgb(22,22,22);fill-rule:nonzero;"/>
                <path d="M1429.2,297.7L1371.4,238C1371.2,237.8 1371.2,237.4 1371.4,237.2L1423.4,183.2C1423.8,182.8 1423.5,182.2 1423,182.2L1401.7,182.2C1401.5,182.2 1401.4,182.3 1401.3,182.4L1357.2,228.2C1356.8,228.6 1356.2,228.3 1356.2,227.8L1356.2,182.8C1356.2,182.5 1355.9,182.2 1355.6,182.2L1338.9,182.2C1338.6,182.2 1338.3,182.5 1338.3,182.8L1338.3,298.2C1338.3,298.5 1338.6,298.8 1338.9,298.8L1355.6,298.8C1355.9,298.8 1356.2,298.5 1356.2,298.2L1356.2,247.4C1356.2,246.9 1356.9,246.6 1357.2,247L1407.2,298.6C1407.3,298.7 1407.5,298.8 1407.6,298.8L1428.9,298.8C1429.3,298.7 1429.6,298 1429.2,297.7Z" style="fill:rgb(22,22,22);fill-rule:nonzero;"/>
            </g>
            <g>
                <path d="M366,120L264.9,195L283.7,150.8L366,120Z" style="fill:rgb(225,119,38);fill-rule:nonzero;stroke:rgb(225,119,38);stroke-width:1px;"/>
                <g>
                    <path d="M132.8,120L233,195.7L215.1,150.8L132.8,120Z" style="fill:rgb(226,118,37);fill-rule:nonzero;stroke:rgb(226,118,37);stroke-width:1px;"/>
                    <path d="M329.6,293.9L302.7,335.1L360.3,351L376.8,294.8L329.6,293.9Z" style="fill:rgb(226,118,37);fill-rule:nonzero;stroke:rgb(226,118,37);stroke-width:1px;"/>
                    <path d="M122.1,294.8L138.5,351L196,335.1L169.2,293.9L122.1,294.8Z" style="fill:rgb(226,118,37);fill-rule:nonzero;stroke:rgb(226,118,37);stroke-width:1px;"/>
                    <path d="M192.9,224.3L176.9,248.5L233.9,251.1L232,189.6L192.9,224.3Z" style="fill:rgb(226,118,37);fill-rule:nonzero;stroke:rgb(226,118,37);stroke-width:1px;"/>
                    <path d="M305.9,224.3L266.2,188.9L264.9,251.1L321.9,248.5L305.9,224.3Z" style="fill:rgb(226,118,37);fill-rule:nonzero;stroke:rgb(226,118,37);stroke-width:1px;"/>
                    <path d="M196,335.1L230.5,318.4L200.8,295.2L196,335.1Z" style="fill:rgb(226,118,37);fill-rule:nonzero;stroke:rgb(226,118,37);stroke-width:1px;"/>
                    <path d="M268.3,318.4L302.7,335.1L298,295.2L268.3,318.4Z" style="fill:rgb(226,118,37);fill-rule:nonzero;stroke:rgb(226,118,37);stroke-width:1px;"/>
                </g>
                <g>
                    <path d="M302.7,335.1L268.3,318.4L271.1,340.8L270.8,350.3L302.7,335.1Z" style="fill:rgb(213,191,178);fill-rule:nonzero;stroke:rgb(213,191,178);stroke-width:1px;"/>
                    <path d="M196,335.1L228,350.3L227.8,340.8L230.5,318.4L196,335.1Z" style="fill:rgb(213,191,178);fill-rule:nonzero;stroke:rgb(213,191,178);stroke-width:1px;"/>
                </g>
                <path d="M228.6,280.4L200,272L220.2,262.7L228.6,280.4Z" style="fill:rgb(35,52,71);fill-rule:nonzero;stroke:rgb(35,52,71);stroke-width:1px;"/>
                <path d="M270.2,280.4L278.6,262.7L298.9,272L270.2,280.4Z" style="fill:rgb(35,52,71);fill-rule:nonzero;stroke:rgb(35,52,71);stroke-width:1px;"/>
                <g>
                    <path d="M196,335.1L201,293.9L169.2,294.8L196,335.1Z" style="fill:rgb(204,98,40);fill-rule:nonzero;stroke:rgb(204,98,40);stroke-width:1px;"/>
                    <path d="M297.8,293.9L302.7,335.1L329.6,294.8L297.8,293.9Z" style="fill:rgb(204,98,40);fill-rule:nonzero;stroke:rgb(204,98,40);stroke-width:1px;"/>
                    <path d="M321.9,248.5L264.9,251.1L270.2,280.4L278.6,262.7L298.9,272L321.9,248.5Z" style="fill:rgb(204,98,40);fill-rule:nonzero;stroke:rgb(204,98,40);stroke-width:1px;"/>
                    <path d="M200,272L220.2,262.7L228.6,280.4L233.9,251.1L176.9,248.5L200,272Z" style="fill:rgb(204,98,40);fill-rule:nonzero;stroke:rgb(204,98,40);stroke-width:1px;"/>
                </g>
                <g>
                    <path d="M176.9,248.5L200.8,295.2L200,272L176.9,248.5Z" style="fill:rgb(226,117,37);fill-rule:nonzero;stroke:rgb(226,117,37);stroke-width:1px;"/>
                    <path d="M298.9,272L298,295.2L321.9,248.5L298.9,272Z" style="fill:rgb(226,117,37);fill-rule:nonzero;stroke:rgb(226,117,37);stroke-width:1px;"/>
                    <path d="M233.9,251.1L228.6,280.4L235.3,315L236.8,269.4L233.9,251.1Z" style="fill:rgb(226,117,37);fill-rule:nonzero;stroke:rgb(226,117,37);stroke-width:1px;"/>
                    <path d="M264.9,251.1L262.1,269.3L263.5,315L270.2,280.4L264.9,251.1Z" style="fill:rgb(226,117,37);fill-rule:nonzero;stroke:rgb(226,117,37);stroke-width:1px;"/>
                </g>
                <path d="M270.2,280.4L263.5,315L268.3,318.4L298,295.2L298.9,272L270.2,280.4Z" style="fill:rgb(245,132,31);fill-rule:nonzero;stroke:rgb(245,132,31);stroke-width:1px;"/>
                <path d="M200,272L200.8,295.2L230.5,318.4L235.3,315L228.6,280.4L200,272Z" style="fill:rgb(245,132,31);fill-rule:nonzero;stroke:rgb(245,132,31);stroke-width:1px;"/>
                <path d="M270.8,350.3L271.1,340.8L268.5,338.6L230.3,338.6L227.8,340.8L228,350.3L196,335.1L207.2,344.3L229.9,360L268.8,360L291.6,344.3L302.7,335.1L270.8,350.3Z" style="fill:rgb(192,172,157);fill-rule:nonzero;stroke:rgb(192,172,157);stroke-width:1px;"/>
                <path d="M268.3,318.4L263.5,315L235.3,315L230.5,318.4L227.8,340.8L230.3,338.6L268.5,338.6L271.1,340.8L268.3,318.4Z" style="fill:rgb(22,22,22);fill-rule:nonzero;stroke:rgb(22,22,22);stroke-width:1px;"/>
                <g>
                    <path d="M370.3,199.9L378.8,158.5L366,120L268.3,192.5L305.9,224.3L359,239.8L370.7,226.1L365.6,222.4L373.7,215L367.5,210.2L375.6,204L370.3,199.9Z" style="fill:rgb(118,62,26);fill-rule:nonzero;stroke:rgb(118,62,26);stroke-width:1px;"/>
                    <path d="M120,158.5L128.6,199.9L123.1,204L131.3,210.2L125.1,215L133.2,222.4L128.1,226.1L139.8,239.8L192.9,224.3L230.5,192.5L132.8,120L120,158.5Z" style="fill:rgb(118,62,26);fill-rule:nonzero;stroke:rgb(118,62,26);stroke-width:1px;"/>
                </g>
                <path d="M359,239.8L305.9,224.3L321.9,248.5L298,295.2L329.6,294.8L376.8,294.8L359,239.8Z" style="fill:rgb(245,132,31);fill-rule:nonzero;stroke:rgb(245,132,31);stroke-width:1px;"/>
                <path d="M192.9,224.3L139.8,239.8L122.1,294.8L169.2,294.8L200.8,295.2L176.9,248.5L192.9,224.3Z" style="fill:rgb(245,132,31);fill-rule:nonzero;stroke:rgb(245,132,31);stroke-width:1px;"/>
                <path d="M264.9,251.1L268.3,192.5L283.7,150.8L215.1,150.8L230.5,192.5L233.9,251.1L235.2,269.5L235.3,315L263.5,315L263.6,269.5L264.9,251.1Z" style="fill:rgb(245,132,31);fill-rule:nonzero;stroke:rgb(245,132,31);stroke-width:1px;"/>
            </g>
        </g>
        <g transform="matrix(9.41343,0,0,9.41343,-2294.05,2184.04)">
            <g id="logo_brave">
                <g id="Logo-Logotypes-brave-logo-dark" serif:id="Logo/Logotypes/brave/logo-dark">
                    <g id="Logotypes-brave-logo-dark" serif:id="Logotypes/brave/logo-dark">
                        <g id="Group-5">
                            <g id="Group-4" transform="matrix(1,0,0,1,66.4759,11.4947)">
                                <path id="Shape" d="M0.095,20.129L0.095,0.09L1.98,0.09C3.517,0.09 4.762,1.356 4.762,2.918L4.762,11.828C7.784,9.087 10.354,7.99 13.78,7.92C20.349,7.783 26.051,12.743 26.593,19.4C27.241,27.354 21.551,33.341 14.138,33.341C6,33.341 0.095,28.211 0.095,20.129ZM4.685,21.702C5.145,25.843 9.035,29.263 13.136,29.329C18.48,29.412 22.121,25.872 22.121,20.634C22.121,15.397 18.561,11.94 13.368,11.94C7.817,11.927 4.053,16.026 4.685,21.702Z" style="fill:rgb(59,62,79);"/>
                                <path id="Shape1" serif:id="Shape" d="M34.381,8.42L34.381,11.989C37.317,8.677 39.056,7.787 42.494,7.787C43.494,7.788 44.492,7.87 45.479,8.031L45.479,12.772C44.426,12.478 43.338,12.33 42.245,12.333C39.757,12.333 37.667,13.161 36.136,14.726C34.792,16.097 34.393,17.169 34.393,19.322L34.393,32.521L29.554,32.521L29.554,8.42L34.381,8.42Z" style="fill:rgb(59,62,79);"/>
                                <path id="Shape2" serif:id="Shape" d="M46.628,16.39C46.876,14.043 47.324,12.772 48.318,11.551C50.31,9.066 53.894,7.787 58.969,7.787C63.001,7.787 65.938,8.425 67.978,9.791C69.673,10.913 70.369,12.577 70.369,15.509L70.369,26.211C70.369,28.559 70.968,29.387 72.609,29.341C72.976,29.328 73.342,29.295 73.705,29.242L73.705,32.467C72.889,32.751 72.029,32.882 71.167,32.856C68.133,32.856 66.74,31.929 65.795,29.238C62.81,32.024 59.722,33.196 55.295,33.196C49.373,33.196 45.74,30.459 45.74,26.008C45.714,23.47 47.183,21.162 49.471,20.146C51.263,19.363 52.358,19.119 57.482,18.581C61.861,18.142 62.61,18.042 63.852,17.649C65.196,17.21 65.795,16.477 65.795,15.256C65.795,12.664 63.657,11.493 59.177,11.493C54.941,11.493 52.758,12.345 51.882,14.523C51.448,15.637 50.392,16.371 49.214,16.378L46.628,16.39ZM65.771,20.498C62.701,21.405 59.549,21.995 56.362,22.257C52.033,22.696 50.689,23.528 50.689,25.727C50.689,28.169 52.68,29.453 56.611,29.453C59.845,29.453 62.284,28.625 64.027,27.01C65.42,25.689 65.771,24.762 65.771,22.456L65.771,20.498Z" style="fill:rgb(59,62,79);"/>
                                <path id="Shape3" serif:id="Shape" d="M85.386,32.517L84.14,32.517C83.042,32.524 82.037,31.889 81.557,30.885L71.118,8.42L74.018,8.42C75.708,8.407 77.247,9.409 77.941,10.975L84.905,27.122L92.102,10.913C92.806,9.371 94.332,8.39 96.004,8.404L98.639,8.404L87.956,30.91C87.471,31.9 86.474,32.524 85.386,32.517Z" style="fill:rgb(59,62,79);"/>
                                <path id="Shape4" serif:id="Shape" d="M101.91,21.864C102.407,26.509 105.983,29.391 111.314,29.391C114.34,29.391 116.609,28.476 118.014,26.65C118.834,25.603 120.079,24.993 121.395,24.994L124.201,24.994C121.757,30.467 117.383,33.158 110.862,33.158C102.716,33.158 97.226,28.124 97.226,20.597C97.226,13.07 102.851,7.791 110.964,7.791C116.833,7.791 121.554,10.478 123.456,14.979C124.303,17.049 124.649,18.887 124.649,21.868L101.91,21.864ZM119.725,18.138C118.629,13.886 115.395,11.488 110.915,11.488C106.435,11.488 103.201,13.886 102.056,18.138L119.725,18.138Z" style="fill:rgb(59,62,79);"/>
                            </g>
                            <g transform="matrix(1,0,0,1,4.51072,0)">
                                <g id="Build-Icons-Release" serif:id="Build-Icons/Release">
                                    <g id="Logo">
                                        <path id="Head" d="M47.09,13.985L48.432,10.629C48.432,10.629 46.724,8.764 44.65,6.651C42.576,4.538 38.184,5.781 38.184,5.781L33.183,0L15.615,0L10.614,5.781C10.614,5.781 6.222,4.538 4.148,6.651C2.074,8.764 0.366,10.629 0.366,10.629L1.708,13.985L0,18.956C0,18.956 5.023,38.34 5.612,40.707C6.771,45.368 7.564,47.17 10.858,49.531C14.151,51.893 20.129,55.995 21.105,56.616C22.081,57.237 23.301,58.296 24.399,58.296C25.497,58.296 26.717,57.237 27.693,56.616C28.669,55.995 34.646,51.893 37.94,49.531C41.234,47.17 42.027,45.368 43.186,40.707C43.775,38.34 48.798,18.956 48.798,18.956L47.09,13.985Z" style="fill:url(#_Linear2);"/>
                                        <path id="Face" d="M24.399,36.279C24.733,36.279 26.876,37.049 28.595,37.956C30.314,38.862 31.56,39.503 31.958,39.757C32.357,40.011 32.114,40.49 31.751,40.751C31.388,41.012 26.513,44.858 26.04,45.283C25.567,45.709 24.872,46.411 24.399,46.411C23.926,46.411 23.231,45.709 22.758,45.283C22.284,44.858 17.41,41.012 17.047,40.751C16.684,40.49 16.441,40.011 16.839,39.757C17.238,39.503 18.484,38.862 20.203,37.956C21.922,37.049 24.064,36.279 24.399,36.279ZM24.425,8.886C24.589,8.89 25.514,8.936 26.839,9.386C28.303,9.883 29.889,10.504 30.621,10.504C31.353,10.504 36.781,9.448 36.781,9.448C36.781,9.448 43.215,17.371 43.215,19.065C43.215,20.758 42.406,21.205 41.592,22.086C40.778,22.966 37.224,26.811 36.768,27.304C36.312,27.798 35.361,28.547 35.92,29.894C36.479,31.242 37.304,32.956 36.387,34.695C35.47,36.434 33.899,37.595 32.893,37.403C31.886,37.211 29.523,35.953 28.653,35.378C27.784,34.803 25.029,32.488 25.029,31.603C25.029,30.717 27.877,29.127 28.403,28.766C28.929,28.404 31.329,27.006 31.378,26.457C31.427,25.908 31.409,25.747 30.7,24.391C29.992,23.035 28.717,21.225 28.929,20.02C29.141,18.816 31.198,18.19 32.666,17.625C34.134,17.061 36.96,15.994 37.313,15.828C37.666,15.662 37.575,15.504 36.505,15.401C35.436,15.298 32.401,14.887 31.033,15.276C29.665,15.665 27.327,16.256 27.138,16.569C26.949,16.883 26.782,16.893 26.976,17.974C27.17,19.056 28.171,24.244 28.269,25.166C28.366,26.088 28.556,26.697 27.581,26.924C26.605,27.151 24.963,27.546 24.399,27.546C23.835,27.546 22.193,27.151 21.217,26.924C20.242,26.697 20.432,26.088 20.529,25.166C20.626,24.244 21.627,19.056 21.822,17.974C22.016,16.893 21.849,16.883 21.66,16.569C21.471,16.256 19.133,15.665 17.765,15.276C16.397,14.887 13.362,15.298 12.293,15.401C11.223,15.504 11.132,15.662 11.485,15.828C11.838,15.994 14.664,17.061 16.132,17.625C17.599,18.19 19.656,18.816 19.869,20.02C20.081,21.225 18.805,23.035 18.097,24.391C17.389,25.747 17.37,25.908 17.42,26.457C17.469,27.006 19.868,28.404 20.395,28.766C20.921,29.127 23.768,30.717 23.768,31.603C23.768,32.488 21.014,34.803 20.144,35.378C19.275,35.953 16.911,37.211 15.905,37.403C14.899,37.595 13.328,36.434 12.411,34.695C11.494,32.956 12.319,31.242 12.877,29.894C13.436,28.547 12.486,27.798 12.03,27.304C11.574,26.811 8.02,22.966 7.206,22.086C6.392,21.205 5.583,20.758 5.583,19.065C5.583,17.371 12.016,9.448 12.016,9.448C12.016,9.448 17.445,10.504 18.177,10.504C18.909,10.504 20.495,9.883 21.959,9.386C23.284,8.936 24.209,8.89 24.373,8.886L24.425,8.886Z" style="fill:white;"/>
                                        <path id="Top-Head" d="M38.184,5.781L33.183,0L15.615,0L10.614,5.781C10.614,5.781 6.222,4.538 4.148,6.651C4.148,6.651 10.004,6.113 12.016,9.448C12.016,9.448 17.445,10.504 18.177,10.504C18.909,10.504 20.495,9.883 21.959,9.386C23.423,8.889 24.399,8.885 24.399,8.885C24.399,8.885 25.375,8.889 26.839,9.386C28.303,9.883 29.889,10.504 30.621,10.504C31.353,10.504 36.781,9.448 36.781,9.448C38.794,6.113 44.65,6.651 44.65,6.651C42.576,4.538 38.184,5.781 38.184,5.781" style="fill:url(#_Linear3);"/>
                                    </g>
                                </g>
                            </g>
                        </g>
                    </g>
                </g>
            </g>
        </g>
        <g id="_1421487920208" transform="matrix(0.616936,0,0,0.616936,-896.318,-1628.73)">
            <path d="M875.92,551.95C816.84,790.19 575.81,935.42 337.56,876.34C99.32,817.27 -45.91,576.23 13.17,337.99C72.25,99.74 313.28,-45.5 551.52,13.58C551.92,13.68 552.33,13.78 552.73,13.89C790.34,73.52 934.9,314.17 875.92,551.95Z" style="fill:rgb(247,147,26);fill-rule:nonzero;"/>
            <path d="M545.37,380.28C531.48,435.84 446.76,407.36 419.26,400.56L443.56,303.34C470.64,310.01 559.26,322.78 544.95,380.28L545.37,380.28ZM530.23,537.38C515.23,597.92 413.29,565.16 380.23,556.95L407.03,449.59C440.09,457.92 545.92,474.17 530.23,537.38ZM641.34,381.12C650.09,321.95 605.09,290.15 544.12,269.04L564.12,188.9L514.82,176.68L495.38,254.74C482.6,251.55 469.41,248.49 456.35,245.57L475.79,166.68L427.04,154.46L407.04,234.6L375.93,227.66L308.57,210.85L295.65,262.94C295.65,262.94 331.76,271.27 331.07,271.83C344.86,273.5 354.92,285.75 353.85,299.61L331.07,390.86C332.78,391.25 334.46,391.8 336.07,392.53L330.93,391.14L299.12,519.06C296.14,528.42 286.14,533.57 276.77,530.59L276.76,530.59C276.76,531.28 241.2,521.84 241.2,521.84L217.03,577.4L280.5,593.1L315.22,602.13L295.08,683.1L343.83,695.32L363.83,615.18C376.97,618.79 389.9,622.12 402.58,625.18L382.86,705.6L431.61,717.68L451.75,636.85C535.08,652.56 597.44,646.29 623.83,571.02C645.08,510.46 622.72,475.6 578.97,452.82C610.91,445.46 634.53,425.04 641.33,381.15L641.34,381.12Z" style="fill:white;fill-rule:nonzero;"/>
            <path d="M1157.17,750C1183.13,750.08 1208.67,743.47 1231.34,730.83C1254.67,718.39 1275.19,701.26 1291.62,680.55C1308.74,658.65 1322.2,634.12 1331.48,607.91C1341.27,580.83 1346.24,552.26 1346.2,523.47C1347.76,494.26 1341.52,465.16 1328.14,439.16C1316.2,419.02 1293.97,408.75 1261.75,408.75C1247.71,409.23 1233.75,411.14 1220.08,414.44C1203.11,418.23 1187.41,426.37 1174.52,438.05L1100.91,745.83L1112.72,748.05C1116.23,748.91 1119.82,749.47 1123.41,749.72C1128.02,750.29 1132.66,750.52 1137.3,750.41L1157.16,749.99L1157.17,750ZM1303.42,268.89C1335.57,268.15 1367.49,274.71 1396.75,288.06C1422.15,300.17 1444.47,317.88 1462.03,339.87C1480.01,362.61 1493.23,388.72 1500.92,416.67C1509.34,447.49 1513.49,479.31 1513.28,511.26C1513.24,610.66 1474.71,706.17 1405.78,777.79C1372.36,812.07 1332.6,839.51 1288.7,858.62C1242.67,878.88 1192.88,889.21 1142.59,888.9L1107.03,888.9C1087.7,888.27 1068.4,886.61 1049.25,883.9C1025.86,880.51 1002.68,875.88 979.81,870.01C955.83,864.32 932.55,856.03 910.37,845.29L1105.51,27.79L1279.82,0.01L1210.38,290.15C1224.84,283.61 1239.85,278.36 1255.24,274.46C1271.1,270.6 1287.39,268.68 1303.71,268.77L1303.43,268.91L1303.42,268.89Z" style="fill:rgb(77,77,77);fill-rule:nonzero;"/>
            <path d="M1774.39,209.3C1751.67,209.52 1729.52,202.24 1711.33,188.61C1692.05,173.36 1681.63,149.51 1683.55,125C1683.47,109.71 1686.73,94.58 1693.13,80.69C1699.26,67.16 1707.87,54.91 1718.55,44.58C1729.22,34.44 1741.58,26.26 1755.08,20.41C1769.12,14.38 1784.25,11.31 1799.52,11.38C1822.08,11.31 1844.02,18.63 1862.02,32.21C1881.26,47.49 1891.67,71.32 1889.8,95.82C1889.92,111.15 1886.7,126.32 1880.36,140.26C1874.23,153.72 1865.66,165.91 1855.08,176.23C1844.44,186.41 1832.08,194.59 1818.55,200.4C1804.51,206.43 1789.38,209.46 1774.11,209.29L1774.39,209.29L1774.39,209.3ZM1693.42,873.06L1526.75,873.06L1667.58,281.38L1835.22,281.38L1693.41,873.06L1693.42,873.06Z" style="fill:rgb(77,77,77);fill-rule:nonzero;"/>
            <path d="M1981.06,134.03L2155.36,107.09L2112.03,281.4L2298.71,281.4L2265.08,418.62L2079.94,418.62L2030.5,625.01C2026.22,640.81 2023.57,657.01 2022.58,673.36C2021.56,686.58 2023.52,699.86 2028.27,712.23C2032.92,723.33 2041.53,732.3 2052.44,737.37C2068.14,744.31 2085.28,747.47 2102.44,746.54C2120.02,746.6 2137.56,744.87 2154.8,741.4C2172.15,738.01 2189.24,733.37 2205.91,727.51L2218.41,855.84C2194.48,864.44 2170.03,871.55 2145.21,877.09C2114.54,883.6 2083.23,886.63 2051.88,886.12C2000.07,886.12 1960.07,878.34 1931.46,863.06C1904.7,849.45 1883.26,827.25 1870.63,800C1858.3,771.09 1852.92,739.69 1854.94,708.33C1856.81,671.54 1862.06,635 1870.63,599.16L1981.05,133.47L1981.05,134.03L1981.06,134.03Z" style="fill:rgb(77,77,77);fill-rule:nonzero;"/>
            <path d="M2292.59,636.8C2292.24,587.72 2300.6,538.94 2317.31,492.78C2332.98,449.13 2357.05,408.98 2388.14,374.59C2419.49,340.48 2457.61,313.33 2500.08,294.85C2546.4,274.85 2596.43,264.86 2646.88,265.56C2677.34,265.2 2707.74,268.41 2737.44,275.13C2762.41,281.05 2786.7,289.52 2809.94,300.41L2752.03,430.55C2737.03,424.44 2721.47,419.18 2705.36,414.3C2686.15,408.95 2666.26,406.47 2646.33,406.94C2595.97,405.12 2547.53,426.41 2514.8,464.72C2482.3,502.95 2465.99,554.34 2465.91,618.89C2464.38,651.63 2473.02,684.03 2490.63,711.68C2507.1,735.29 2537.49,747.08 2581.74,747.08C2602.95,747.1 2624.09,744.82 2644.8,740.28C2663.27,736.34 2681.37,730.72 2698.83,723.47L2711.19,857.37C2688.47,865.97 2665.29,873.3 2641.75,879.3C2611.86,886.04 2581.28,889.22 2550.64,888.76C2509.97,889.94 2469.49,883.09 2431.47,868.61C2401.25,856.43 2374.04,837.81 2351.75,814.04C2330.6,791 2314.97,763.44 2306.06,733.47C2296.63,701.93 2291.95,669.16 2292.17,636.25L2292.59,636.81L2292.59,636.8Z" style="fill:rgb(77,77,77);fill-rule:nonzero;"/>
            <path d="M3114.94,407.5C3091.44,407.17 3068.47,414.64 3049.66,428.75C3030.59,443.51 3014.59,461.88 3002.58,482.78C2989.37,505.03 2979.45,529.09 2973.14,554.19C2967.03,578.25 2963.85,602.95 2963.7,627.78C2962.2,658.09 2968.37,688.27 2981.62,715.56C2993.71,736.53 3015.37,747.09 3046.9,747.09C3070.44,747.49 3093.44,739.96 3112.18,725.7C3131.29,710.94 3147.32,692.57 3159.4,671.69C3172.42,649.41 3182.1,625.36 3188.16,600.28C3194.2,576.17 3197.38,551.41 3197.59,526.53C3199.15,496.24 3192.96,466.03 3179.67,438.75C3167.59,417.92 3145.78,407.36 3114.39,407.36L3114.95,407.5L3114.94,407.5ZM3031.61,888.89C2996.22,889.71 2961.03,883.57 2928,870.83C2900.21,859.87 2875.39,842.57 2855.5,820.27C2835.94,797.81 2821.21,771.58 2812.17,743.19C2802.35,711.36 2797.65,678.16 2798.28,644.86C2798.39,599 2805.74,553.43 2820.1,509.86C2834.03,466.01 2855.78,425.04 2884.25,388.89C2912.85,352.75 2948.42,322.71 2988.83,300.56C3032.33,277.17 3081.11,265.35 3130.5,266.25C3165.68,265.61 3200.68,271.75 3233.56,284.31C3261.38,295.09 3286.34,312.16 3306.47,334.17C3325.91,356.69 3340.61,382.91 3349.67,411.25C3359.56,443.11 3364.25,476.36 3363.56,509.72C3363.42,555.54 3356.25,601.08 3342.31,644.72C3328.62,688.63 3307.27,729.76 3279.25,766.25C3251.07,802.54 3215.64,832.58 3175.22,854.45C3131.05,877.96 3081.64,889.82 3031.61,888.89Z" style="fill:rgb(77,77,77);fill-rule:nonzero;"/>
            <path d="M3626.75,209.3C3604.07,209.54 3581.94,202.26 3563.84,188.61C3544.55,173.36 3534.13,149.51 3536.06,125C3535.98,109.71 3539.24,94.58 3545.63,80.69C3551.59,67.23 3559.96,55 3570.35,44.58C3581.09,34.47 3593.49,26.29 3607.02,20.41C3621.02,14.39 3636.1,11.32 3651.34,11.38C3674.06,11.18 3696.25,18.52 3714.4,32.21C3733.64,47.49 3744.04,71.32 3742.18,95.82C3742.21,111.17 3738.89,126.34 3732.44,140.26C3726.42,153.73 3717.88,165.94 3707.31,176.23C3696.67,186.41 3684.31,194.59 3670.78,200.4C3656.86,206.37 3641.88,209.4 3626.74,209.29L3626.75,209.3ZM3545.93,873.06L3379.26,873.06L3519.82,281.38L3687.6,281.38L3545.93,873.06Z" style="fill:rgb(77,77,77);fill-rule:nonzero;"/>
            <path d="M3807.59,308.33C3820.23,304.72 3834.26,300.27 3849.26,295.42C3864.26,290.56 3881.76,286.11 3901.05,281.53C3922.22,277.04 3943.59,273.66 3965.09,271.39C3991.8,268.57 4018.65,267.22 4045.51,267.36C4133.29,267.36 4193.84,292.86 4227.18,343.89C4247.14,374.45 4257.24,411.73 4257.48,455.74L4257.48,458.91C4257.33,487.53 4253.06,518.96 4244.68,553.19L4168.15,872.63L4000.93,872.63L4075.23,559.84C4079.67,540.41 4083.29,521.52 4085.93,503.05C4088.82,487.06 4088.82,470.69 4085.93,454.72C4083.17,441.37 4075.79,429.43 4065.1,420.97C4050.28,411.25 4032.64,406.71 4014.96,408.05C3992.7,408.09 3970.5,410.37 3948.71,414.86L3839.54,873.19L3671.33,873.19L3807.59,308.33Z" style="fill:rgb(77,77,77);fill-rule:nonzero;"/>
        </g>
        <g id="Layer_1-2" transform="matrix(2.02796,0,0,2.02796,-3698.01,711.017)">
            <path d="M306.2,155.7C306.167,157.645 304.546,159.222 302.6,159.2L236.3,159.2C238,175.6 250.3,190.6 267.7,190.6C279.6,190.6 288.4,186.1 295,176.6C295.623,175.587 296.712,174.949 297.9,174.9C297.93,174.899 297.961,174.899 297.991,174.899C299.752,174.899 301.201,176.348 301.201,178.109C301.201,178.139 301.201,178.17 301.2,178.2C301.202,178.803 301.028,179.394 300.7,179.9C294,191.5 280.7,197.2 267.7,197.2C245.4,197.2 229.4,177.2 229.4,155.9C229.4,134.6 245.3,114.6 267.7,114.6C290.1,114.6 306.1,134.4 306.2,155.7ZM299.1,152.6C297.7,136.2 285.1,121.2 267.7,121.2C250.3,121.2 238,136.2 236.3,152.6L299.1,152.6Z" style="fill:rgb(59,59,59);fill-rule:nonzero;"/>
            <path d="M386.8,116.2C388.59,116.252 390.048,117.71 390.1,119.5C390.101,119.53 390.101,119.561 390.101,119.591C390.101,121.352 388.652,122.801 386.891,122.801C386.861,122.801 386.83,122.801 386.8,122.8L369,122.8L369,192.7C368.984,194.504 367.504,195.984 365.7,196C363.91,195.948 362.452,194.49 362.4,192.7L362.4,122.8L345.3,122.8C345.27,122.801 345.239,122.801 345.209,122.801C343.448,122.801 341.999,121.352 341.999,119.591C341.999,119.561 341.999,119.53 342,119.5C342.016,117.696 343.496,116.216 345.3,116.2L362.4,116.2L362.4,90.7C362.403,88.962 363.683,87.469 365.4,87.2C365.543,87.181 365.687,87.172 365.831,87.172C367.624,87.172 369.101,88.648 369.101,90.442C369.101,90.461 369.1,90.481 369.1,90.5L369.1,116.2L386.8,116.2Z" style="fill:rgb(59,59,59);fill-rule:nonzero;"/>
            <path d="M495.3,150L495.3,192.3C495.248,194.09 493.79,195.548 492,195.6C491.97,195.601 491.939,195.601 491.909,195.601C490.148,195.601 488.699,194.152 488.699,192.391C488.699,192.361 488.699,192.33 488.7,192.3L488.7,150C488.7,135.7 480.6,121.5 464.7,121.5C444.3,121.5 435.5,139.3 436.7,157.6C436.7,158.1 436.9,160.2 436.9,160.5L436.9,192.2C436.897,193.938 435.617,195.431 433.9,195.7C433.757,195.719 433.613,195.728 433.469,195.728C431.676,195.728 430.199,194.252 430.199,192.458C430.199,192.439 430.2,192.419 430.2,192.4L430.2,53.3C430.216,51.496 431.696,50.016 433.5,50C435.29,50.052 436.748,51.51 436.8,53.3L436.8,131.9C442.5,121.7 452.7,114.8 464.6,114.8C484.2,114.8 495.3,131.9 495.3,150Z" style="fill:rgb(59,59,59);fill-rule:nonzero;"/>
            <path d="M614.4,155.7C614.367,157.645 612.746,159.222 610.8,159.2L544.5,159.2C546.2,175.6 558.5,190.6 575.9,190.6C587.8,190.6 596.6,186.1 603.2,176.6C603.823,175.587 604.912,174.949 606.1,174.9C606.13,174.899 606.161,174.899 606.191,174.899C607.952,174.899 609.401,176.348 609.401,178.109C609.401,178.139 609.401,178.17 609.4,178.2C609.402,178.803 609.228,179.394 608.9,179.9C602.2,191.5 588.9,197.2 575.9,197.2C553.6,197.2 537.6,177.2 537.6,155.9C537.6,134.6 553.5,114.6 575.9,114.6C598.1,114.6 614.3,134.4 614.4,155.7ZM607.2,152.6C605.8,136.2 593.2,121.2 575.8,121.2C558.4,121.2 546.1,136.2 544.4,152.6L607.2,152.6Z" style="fill:rgb(59,59,59);fill-rule:nonzero;"/>
            <path d="M695.9,119.3C696.031,121.136 694.635,122.757 692.8,122.9C673.3,125.8 664.5,141.7 664.5,160.2L664.5,191.9C664.497,193.638 663.217,195.131 661.5,195.4C661.357,195.419 661.213,195.428 661.069,195.428C659.276,195.428 657.799,193.952 657.799,192.158C657.799,192.139 657.8,192.119 657.8,192.1L657.8,119.8C657.803,118.062 659.083,116.569 660.8,116.3C660.943,116.281 661.087,116.272 661.231,116.272C663.024,116.272 664.501,117.748 664.501,119.542C664.501,119.561 664.5,119.581 664.5,119.6L664.5,134.3C670,125 680.9,116.2 692.3,116.2C694,116.2 695.9,117.4 695.9,119.3Z" style="fill:rgb(59,59,59);fill-rule:nonzero;"/>
            <path d="M804.9,155.7C804.867,157.645 803.246,159.222 801.3,159.2L735,159.2C736.7,175.6 749,190.6 766.4,190.6C778.3,190.6 787.1,186.1 793.7,176.6C794.323,175.587 795.412,174.949 796.6,174.9C796.63,174.899 796.661,174.899 796.691,174.899C798.452,174.899 799.901,176.348 799.901,178.109C799.901,178.139 799.901,178.17 799.9,178.2C799.902,178.803 799.728,179.394 799.4,179.9C792.7,191.5 779.4,197.2 766.4,197.2C744.1,197.2 728.1,177.2 728.1,155.9C728.1,134.6 744,114.6 766.4,114.6C788.8,114.6 804.8,134.4 804.9,155.7ZM797.8,152.6C796.4,136.2 783.8,121.2 766.4,121.2C749,121.2 736.7,136.2 735,152.6L797.8,152.6Z" style="fill:rgb(59,59,59);fill-rule:nonzero;"/>
            <path d="M912.1,120.1L912.1,192.7C912.048,194.49 910.59,195.948 908.8,196C908.77,196.001 908.739,196.001 908.709,196.001C906.948,196.001 905.499,194.552 905.499,192.791C905.499,192.761 905.499,192.73 905.5,192.7L905.5,178.9C900,189.8 890.3,197.7 877.9,197.7C858.2,197.7 847.3,180.6 847.3,162.5L847.3,120C847.316,118.196 848.796,116.716 850.6,116.7C852.39,116.752 853.848,118.21 853.9,120L853.9,162.5C853.9,176.8 862,191 877.9,191C900.2,191 905.5,170.1 905.5,147L905.5,119.9C905.525,118.08 907.029,116.596 908.85,116.596C909.242,116.596 909.631,116.665 910,116.8C911.281,117.395 912.103,118.687 912.1,120.1Z" style="fill:rgb(59,59,59);fill-rule:nonzero;"/>
            <path d="M1080,149.7L1080,192.2C1079.95,193.99 1078.49,195.448 1076.7,195.5C1076.67,195.501 1076.64,195.501 1076.61,195.501C1074.85,195.501 1073.4,194.052 1073.4,192.291C1073.4,192.261 1073.4,192.23 1073.4,192.2L1073.4,149.7C1073.4,135.4 1065.3,121.4 1049.4,121.4C1029.4,121.4 1021.8,142.8 1021.8,159.4L1021.8,192.2C1021.75,193.99 1020.29,195.448 1018.5,195.5C1018.47,195.501 1018.44,195.501 1018.41,195.501C1016.65,195.501 1015.2,194.052 1015.2,192.291C1015.2,192.261 1015.2,192.23 1015.2,192.2L1015.2,149.7C1015.2,135.4 1007.1,121.4 991.2,121.4C971,121.4 962.7,137.3 963.4,158.5C963.4,159 963.6,159.9 963.4,160.2L963.4,192.1C963.397,193.838 962.117,195.331 960.4,195.6C960.257,195.619 960.113,195.628 959.969,195.628C958.176,195.628 956.699,194.152 956.699,192.358C956.699,192.339 956.7,192.319 956.7,192.3L956.7,119.8C956.703,118.062 957.983,116.569 959.7,116.3C959.843,116.281 959.987,116.272 960.131,116.272C961.924,116.272 963.401,117.748 963.401,119.542C963.401,119.561 963.4,119.581 963.4,119.6L963.4,131.7C969.1,121.5 979.3,114.8 991.2,114.8C1004.7,114.8 1015.2,123.4 1019.5,135.9C1025,123.5 1035.7,114.8 1049.4,114.8C1068.9,114.8 1080,131.7 1080,149.7Z" style="fill:rgb(59,59,59);fill-rule:nonzero;"/>
            <path d="M83,100.1L0,137.8L83,186.9L166.1,137.8L83,100.1Z" style="fill-opacity:0.6;fill-rule:nonzero;"/>
            <path d="M0,137.8L83,186.9L83,0L0,137.8Z" style="fill-opacity:0.45;fill-rule:nonzero;"/>
            <path d="M83,0L83,186.9L166.1,137.8L83,0Z" style="fill-opacity:0.8;fill-rule:nonzero;"/>
            <path d="M0,153.6L83,270.6L83,202.6L0,153.6Z" style="fill-opacity:0.45;fill-rule:nonzero;"/>
            <path d="M83,202.6L83,270.6L166.1,153.6L83,202.6Z" style="fill-opacity:0.8;fill-rule:nonzero;"/>
        </g>
        <g transform="matrix(8.57446,0,0,8.57446,-568.073,3752.29)">
            <path d="M50.116,35.663C50.724,36.987 52.515,37.455 53.545,36.425L55.435,34.535C57.388,32.582 60.554,32.582 62.506,34.535C64.459,36.488 64.459,39.653 62.506,41.606L47.234,56.878C43.566,61.233 38.072,64 31.931,64C25.528,64 19.828,60.991 16.168,56.31L1.465,41.607C-0.488,39.654 -0.488,36.489 1.465,34.536C3.417,32.583 6.583,32.583 8.536,34.536L10.397,36.397C11.405,37.405 13.154,36.951 13.75,35.656C13.867,35.4 13.931,35.126 13.931,34.844L13.931,12C13.931,9.238 16.17,7 18.931,7C21.693,7 23.931,9.238 23.931,12L23.931,23.556C23.931,24.551 24.95,25.226 25.898,24.926C26.498,24.736 26.932,24.19 26.932,23.561L26.932,5C26.932,2.239 29.17,0 31.932,0C34.693,0 36.932,2.239 36.932,5L36.932,23.561C36.932,24.19 37.365,24.737 37.965,24.926C38.913,25.226 39.931,24.551 39.931,23.557L39.931,12C39.931,9.238 42.17,7 44.931,7C47.693,7 49.931,9.238 49.931,12L49.931,34.835C49.931,35.122 49.996,35.402 50.116,35.663Z" style="fill:rgb(253,72,72);"/>
            <path d="M47.932,46C47.932,46 40.768,56 31.932,56C23.095,56 15.932,46 15.932,46C15.932,46 23.095,36 31.932,36C40.768,36 47.932,46 47.932,46Z" style="fill:rgb(213,255,92);fill-rule:nonzero;"/>
            <path d="M39.431,46C39.431,50.142 36.073,53.499 31.932,53.499C27.791,53.499 24.433,50.142 24.433,46C24.433,41.859 27.791,38.501 31.932,38.501C36.073,38.501 39.431,41.859 39.431,46Z" style="fill:none;fill-rule:nonzero;stroke:rgb(253,72,72);stroke-width:1px;stroke-linecap:butt;stroke-linejoin:miter;"/>
            <path d="M36.431,46C36.431,48.485 34.416,50.499 31.932,50.499C29.447,50.499 27.433,48.485 27.433,46C27.433,43.516 29.447,41.502 31.932,41.502C34.416,41.502 36.431,43.516 36.431,46Z" style="fill:none;fill-rule:nonzero;stroke:rgb(253,72,72);stroke-width:1px;stroke-linecap:butt;stroke-linejoin:miter;"/>
            <path d="M42.431,46C42.431,51.798 37.73,56.499 31.932,56.499C26.134,56.499 21.433,51.798 21.433,46C21.433,40.202 26.134,35.501 31.932,35.501C37.73,35.501 42.431,40.202 42.431,46Z" style="fill:none;fill-rule:nonzero;stroke:rgb(253,72,72);stroke-width:1px;stroke-linecap:butt;stroke-linejoin:miter;"/>
            <path d="M45.431,46C45.431,53.455 39.387,59.499 31.932,59.499C24.477,59.499 18.433,53.455 18.433,46C18.433,38.545 24.477,32.501 31.932,32.501C39.387,32.501 45.431,38.545 45.431,46Z" style="fill:none;fill-rule:nonzero;stroke:rgb(253,72,72);stroke-width:1px;stroke-linecap:butt;stroke-linejoin:miter;"/>
            <path d="M33.431,46C33.431,46.828 32.76,47.499 31.932,47.499C31.104,47.499 30.433,46.828 30.433,46C30.433,45.172 31.104,44.501 31.932,44.501C32.76,44.501 33.431,45.172 33.431,46Z" style="fill:rgb(22,43,235);fill-rule:nonzero;stroke:rgb(253,72,72);stroke-width:1px;stroke-linecap:butt;stroke-linejoin:miter;"/>
            <circle cx="31.932" cy="46" r="2" style="fill:rgb(253,72,72);"/>
            <path d="M16.652,46.121C16.618,46.078 16.587,46.037 16.558,46C16.587,45.963 16.618,45.922 16.652,45.878C16.861,45.611 17.17,45.227 17.569,44.765C18.367,43.841 19.521,42.61 20.946,41.379C23.811,38.906 27.695,36.501 31.932,36.501C36.169,36.501 40.053,38.906 42.918,41.379C44.343,42.61 45.497,43.841 46.295,44.765C46.694,45.227 47.003,45.611 47.211,45.878C47.245,45.922 47.277,45.963 47.305,46C47.277,46.037 47.245,46.078 47.211,46.121C47.003,46.389 46.694,46.773 46.295,47.235C45.497,48.159 44.343,49.39 42.918,50.621C40.053,53.094 36.169,55.499 31.932,55.499C27.695,55.499 23.811,53.094 20.946,50.62C19.521,49.39 18.367,48.159 17.569,47.235C17.17,46.773 16.861,46.389 16.652,46.121Z" style="fill:none;fill-rule:nonzero;stroke:rgb(213,255,92);stroke-width:1px;stroke-linecap:butt;stroke-linejoin:miter;"/>
            <g>
                <path d="M85.397,54.071L93.037,54.071L93.037,19.512L107.554,19.512L107.554,12.93L71.115,12.93L71.115,19.512L85.397,19.512L85.397,54.071Z" style="fill-rule:nonzero;"/>
                <path d="M103.067,46.548C103.067,51.72 106.828,54.952 112.47,54.952C117.231,54.952 120.228,52.131 121.462,47.959L123.99,47.959C124.107,52.543 125.224,54.071 130.043,54.071L133.099,54.071L133.099,48.429L130.337,48.429C128.809,48.429 128.574,48.135 128.574,46.665L128.574,34.852C128.574,27.741 124.166,23.92 116.114,23.92C108.18,23.92 103.243,28.152 102.655,32.56L109.179,34.264C109.943,31.267 112.117,29.386 116.114,29.386C119.817,29.386 121.462,30.973 121.462,33.971L121.462,34.97C115.879,35.499 111.412,36.615 108.062,38.378C104.712,40.083 103.067,42.845 103.067,46.548ZM121.462,42.022C121.462,47.018 118.406,49.545 114.762,49.545C111.941,49.545 110.354,48.194 110.354,45.843C110.354,42.081 114.468,40.436 121.462,39.672L121.462,42.022Z" style="fill-rule:nonzero;"/>
                <rect x="137.775" y="12.93" width="7.17" height="41.141" style="fill-rule:nonzero;"/>
                <path d="M153.436,20.159L161.077,20.159L161.077,12.871L153.436,12.871L153.436,20.159ZM153.73,54.071L160.842,54.071L160.842,24.802L153.73,24.802L153.73,54.071Z" style="fill-rule:nonzero;"/>
                <path d="M166.928,46.548C168.221,51.72 173.746,54.894 180.328,54.894C188.38,54.894 193.258,51.191 193.258,45.49C193.258,42.786 192.259,40.729 190.32,39.319C188.38,37.908 186.029,36.909 183.267,36.38L179.447,35.675C175.92,34.97 174.98,34.088 174.98,32.384C174.98,30.444 176.684,29.092 179.799,29.092C183.149,29.092 185.265,31.032 186.205,33.559L192.259,30.973C190.907,27.388 187.028,23.92 180.034,23.92C173.04,23.92 168.162,27.623 168.162,33.03C168.162,38.555 171.689,40.612 177.625,41.846L181.504,42.551C184.795,43.198 185.853,44.373 185.853,46.195C185.853,48.252 183.972,49.545 180.622,49.545C175.979,49.545 174.098,46.959 173.569,44.373L166.928,46.548Z" style="fill-rule:nonzero;"/>
                <path d="M199.646,54.071L206.817,54.071L206.817,39.613C206.817,36.322 207.052,33.618 208.874,31.502C209.755,30.444 211.107,29.915 212.929,29.915C216.455,29.915 218.219,32.031 218.219,36.204L218.219,54.071L225.271,54.071L225.271,39.613C225.271,36.263 225.448,33.618 227.27,31.502C228.151,30.444 229.562,29.915 231.384,29.915C234.734,29.915 236.673,31.914 236.673,36.204L236.673,54.071L243.785,54.071L243.785,34.97C243.785,27.858 239.671,23.921 234.028,23.921C230.032,23.921 226.799,26.742 225.565,30.797L223.038,30.797C222.039,26.389 218.924,23.921 214.986,23.921C210.696,23.921 208.168,26.8 207.052,30.797L203.702,30.797C204.936,29.093 205.994,26.507 205.994,24.802L199.646,24.802L199.646,54.071Z" style="fill-rule:nonzero;"/>
                <path d="M250.4,46.548C250.4,51.72 254.161,54.952 259.803,54.952C264.564,54.952 267.561,52.131 268.796,47.959L271.323,47.959C271.44,52.543 272.557,54.071 277.376,54.071L280.433,54.071L280.433,48.429L277.67,48.429C276.142,48.429 275.907,48.135 275.907,46.665L275.907,34.852C275.907,27.741 271.499,23.92 263.447,23.92C255.513,23.92 250.576,28.152 249.988,32.56L256.512,34.264C257.276,31.267 259.451,29.386 263.447,29.386C267.15,29.386 268.796,30.973 268.796,33.971L268.796,34.97C263.212,35.499 258.746,36.615 255.396,38.378C252.045,40.083 250.4,42.845 250.4,46.548ZM268.796,42.022C268.796,47.018 265.739,49.545 262.096,49.545C259.274,49.545 257.688,48.194 257.688,45.843C257.688,42.081 261.802,40.436 268.796,39.672L268.796,42.022Z" style="fill-rule:nonzero;"/>
                <path d="M285.108,54.071L292.278,54.071L292.278,40.671C292.278,37.144 292.513,34.088 294.453,31.737C295.452,30.503 296.98,29.915 298.978,29.915C302.328,29.915 304.268,31.972 304.268,36.204L304.268,54.071L311.438,54.071L311.438,34.793C311.438,28.035 307.97,23.92 301.388,23.92C296.568,23.92 293.512,27.623 292.219,31.561L288.869,31.561C290.515,29.151 291.69,26.506 291.749,24.802L285.108,24.802L285.108,54.071Z" style="fill-rule:nonzero;"/>
            </g>
        </g>
        <g transform="matrix(0.389121,0,0,0.389121,-223.452,47.9164)">
            <path d="M2384.74,504.19C2307.57,504.19 2233.16,513.84 2202.84,522.11C2158.75,534.51 2147.72,553.8 2139.45,593.76L1964.45,1401.28C1961.69,1417.82 1958.93,1431.6 1958.93,1445.38C1958.93,1485.38 1985.12,1511.52 2027.83,1511.52C2074.69,1511.52 2093.98,1481.21 2103.63,1434.36L2153.23,1204.23C2187.68,1208.36 2233.16,1212.49 2297.93,1212.49C2583.18,1212.49 2760.93,1058.16 2760.93,825.27C2760.94,621.32 2619,504.19 2384.74,504.19ZM2291.04,1080.19C2246.94,1080.19 2212.49,1078.82 2180.79,1074.68L2273.12,646.12C2302.06,641.98 2344.78,636.47 2388.88,636.47C2540.46,636.47 2617.63,708.13 2617.63,826.64C2617.63,978.23 2507.39,1080.2 2291,1080.2L2291.04,1080.19Z" style="fill-rule:nonzero;"/>
            <path d="M6874.28,1245.57C6850.86,1245.57 6835.7,1259.35 6806.76,1291.04C6755.76,1343.41 6724.08,1372.34 6684.12,1372.34C6648.29,1372.34 6628.99,1343.41 6628.99,1296.55C6628.99,1270.37 6634.51,1238.68 6641.4,1204.23L6692.4,964.45L6845.4,964.45C6893.63,964.45 6922.57,936.89 6922.57,887.28C6922.57,859.72 6904.66,839.05 6863.32,839.05L6719.94,839.05L6744.75,727.43C6747.5,710.9 6750.26,695.74 6750.26,681.96C6750.26,643.37 6724.08,615.81 6681.36,615.81C6635.88,615.81 6615.21,646.13 6605.57,692.98L6573.87,839.05L6509.11,839.05C6459.5,839.05 6430.56,866.61 6430.56,916.22C6430.56,943.78 6449.85,964.45 6491.19,964.45L6547.69,964.45L6496.69,1201.45C6491.18,1227.63 6484.29,1270.35 6484.29,1314.45C6484.29,1426.07 6542.17,1507.37 6666.19,1507.37C6737.85,1507.37 6801.24,1471.54 6849.47,1428.82C6896.32,1387.48 6930.77,1336.5 6930.77,1303.42C6930.78,1271.75 6906,1245.57 6874.28,1245.57Z" style="fill-rule:nonzero;"/>
            <path d="M3704.86,585.5C3704.86,545.5 3677.3,519.35 3634.58,519.35C3589.11,519.35 3568.44,549.67 3558.79,596.52L3386.54,1397.15C3382.4,1413.69 3379.65,1427.47 3379.65,1441.25C3379.65,1481.25 3407.21,1507.39 3448.55,1507.39C3495.4,1507.39 3516.07,1477.07 3525.72,1430.22L3698,629.59C3700.73,613.06 3704.86,599.28 3704.86,585.5Z" style="fill-rule:nonzero;"/>
            <path d="M6164.6,825.27C5944.12,825.27 5793.91,1044.38 5793.91,1252.46C5793.91,1256.36 5794.01,1260.21 5794.13,1264.05C5759.55,1316.55 5715.37,1370.97 5685.05,1370.97C5663,1370.97 5654.73,1350.3 5654.73,1318.6C5654.73,1280.02 5665.73,1215.25 5678.16,1158.75L5792.54,629.59C5795.29,613.06 5798.05,599.28 5798.05,585.5C5798.05,545.5 5771.87,519.35 5729.15,519.35C5682.3,519.35 5663,549.67 5653.36,596.52L5591.36,883.15C5558.27,848.7 5510,825.27 5437,825.27C5290.57,825.27 5143.3,938 5085.9,1110.87C5022.69,1274.29 4966.2,1370.97 4921.63,1370.97C4905.1,1370.97 4895.45,1357.19 4895.45,1333.76C4895.45,1264.86 4934.03,1096.76 4950.57,1015.44C4956.08,985.12 4958.84,972.72 4958.84,954.8C4958.84,894.17 4858.24,822.51 4727.33,822.51C4575.96,822.51 4438.85,918.37 4370.09,1060.86C4268,1241.28 4174.3,1371 4127.91,1371C4107.24,1371 4100.35,1344.81 4094.84,1320L4060.39,1129.83L4271.23,957.58C4290.52,941.04 4315.32,917.58 4315.32,887.3C4315.32,850.1 4290.52,825.3 4253.32,825.3C4225.76,825.3 4202.32,841.84 4178.91,861.13L3862,1122.92L3968.11,629.59C3970.87,613.06 3975,599.28 3975,585.5C3975,545.5 3947.44,519.35 3904.72,519.35C3859.25,519.35 3838.58,549.67 3828.93,596.52L3656.68,1397.15C3652.55,1413.69 3649.79,1427.47 3649.79,1441.25C3649.79,1481.25 3677.35,1507.39 3718.69,1507.39C3765.54,1507.39 3786.21,1477.07 3795.86,1430.22L3817.91,1326.87L3947.44,1222.14L3979.14,1381.99C3991.54,1445.38 4024.61,1507.39 4110.05,1507.39C4195.05,1507.39 4261.91,1429.76 4328.9,1324.87C4349.23,1434.73 4427.38,1507.39 4535.85,1507.39C4644.71,1507.39 4719.12,1442.62 4767.35,1355.81L4767.35,1358.56C4767.35,1448.14 4812.83,1507.39 4892.75,1507.39C4965.01,1507.39 5025.04,1463.82 5078.66,1371.18C5109.07,1451.91 5177.04,1507.39 5271.66,1507.39C5383.28,1507.39 5463.2,1439.87 5514.19,1346.16L5514.19,1354.43C5514.19,1453.65 5563.8,1507.43 5645.1,1507.43C5716.88,1507.43 5777.92,1465.77 5829.96,1397.9C5869.57,1465.7 5940.55,1507.43 6036.46,1507.43C6256.94,1507.43 6407.14,1288.33 6407.14,1078.87C6407.13,931.38 6317.56,825.27 6164.6,825.27ZM4790.73,1105C4750.73,1277.25 4665.33,1375.09 4568.87,1375.09C4504.1,1375.09 4468.27,1325.48 4468.27,1251.09C4468.27,1105.02 4574.38,947.92 4716.27,947.92C4758.98,947.92 4792.06,960.33 4821,978.24L4790.73,1105ZM5558.27,1032C5514.18,1234.57 5413.58,1375.13 5303.34,1375.13C5242.71,1375.13 5206.88,1328.28 5206.88,1251.13C5206.88,1103.68 5308.88,950.72 5445.28,950.72C5497.64,950.72 5537.6,968.63 5566.54,992.06L5558.27,1032ZM6053,1375.1C5973.08,1375.1 5940,1317.22 5940,1244.19C5940,1110.52 6032.32,957.56 6148.08,957.56C6228,957.56 6261.08,1015.44 6261.08,1088.47C6261.06,1223.52 6168.74,1375.1 6053,1375.1Z" style="fill-rule:nonzero;"/>
            <path d="M3104.06,825.27C2883.57,825.27 2733.37,1044.38 2733.37,1252.46C2733.37,1401.28 2822.94,1507.39 2975.9,1507.39C3196.38,1507.39 3346.59,1288.29 3346.59,1078.83C3346.59,931.38 3257,825.27 3104.06,825.27ZM2992.44,1375.1C2912.51,1375.1 2879.44,1317.22 2879.44,1244.19C2879.44,1110.52 2971.77,957.56 3087.52,957.56C3167.45,957.56 3200.52,1015.44 3200.52,1088.47C3200.52,1223.52 3108.19,1375.1 2992.44,1375.1Z" style="fill-rule:nonzero;"/>
            <ellipse cx="1000" cy="441.78" rx="254.27" ry="147.95" style="fill:rgb(230,0,122);"/>
            <ellipse cx="1000" cy="1556.15" rx="254.27" ry="147.95" style="fill:rgb(230,0,122);"/>
            <g transform="matrix(0.5,-0.866025,0.866025,0.5,-365.13,808.33)">
                <ellipse cx="517.47" cy="720.38" rx="254.27" ry="147.95" style="fill:rgb(230,0,122);"/>
            </g>
            <g transform="matrix(0.5,-0.866025,0.866025,0.5,-365.13,1922.69)">
                <ellipse cx="1482.53" cy="1277.56" rx="254.27" ry="147.95" style="fill:rgb(230,0,122);"/>
            </g>
            <g transform="matrix(0.866025,-0.5,0.5,0.866025,-569.45,429.89)">
                <ellipse cx="517.47" cy="1277.56" rx="147.95" ry="254.27" style="fill:rgb(230,0,122);"/>
            </g>
            <g transform="matrix(0.866025,-0.5,0.5,0.866025,-161.57,837.78)">
                <ellipse cx="1482.53" cy="720.38" rx="147.95" ry="254.27" style="fill:rgb(230,0,122);"/>
            </g>
        </g>
        <g transform="matrix(5.74922,0,0,5.74922,-7286.02,5826.78)">
            <path d="M183.016,115.347L172.654,115.347L172.654,109.24L200.871,109.24L200.871,115.347L190.509,115.347L190.509,141.622L183.016,141.622L183.016,115.347ZM207.97,120.019C208.833,118.816 209.99,117.906 211.439,117.289C212.919,116.673 214.615,116.364 216.527,116.364L216.527,123.026C215.726,122.964 215.186,122.933 214.908,122.933C212.842,122.933 211.223,123.519 210.051,124.691C208.879,125.832 208.293,127.559 208.293,129.872L208.293,141.622L201.077,141.622L201.077,116.734L207.97,116.734L207.97,120.019ZM243.296,116.734L243.296,141.622L236.449,141.622L236.449,138.661C235.493,139.74 234.352,140.573 233.026,141.159C231.7,141.714 230.266,141.992 228.724,141.992C225.455,141.992 222.865,141.051 220.953,139.17C219.041,137.289 218.085,134.498 218.085,130.797L218.085,116.734L225.301,116.734L225.301,129.733C225.301,133.742 226.982,135.747 230.343,135.747C232.07,135.747 233.458,135.192 234.507,134.081C235.555,132.94 236.079,131.26 236.079,129.039L236.079,116.734L243.296,116.734ZM255.579,141.992C253.512,141.992 251.492,141.745 249.519,141.252C247.545,140.727 245.972,140.08 244.8,139.309L247.206,134.128C248.316,134.837 249.657,135.423 251.23,135.885C252.803,136.317 254.345,136.533 255.856,136.533C258.909,136.533 260.436,135.778 260.436,134.266C260.436,133.557 260.019,133.048 259.187,132.74C258.354,132.432 257.074,132.169 255.347,131.953C253.312,131.645 251.631,131.29 250.305,130.89C248.979,130.489 247.823,129.779 246.836,128.762C245.88,127.744 245.402,126.295 245.402,124.413C245.402,122.841 245.849,121.453 246.743,120.25C247.668,119.016 248.994,118.06 250.721,117.382C252.479,116.704 254.545,116.364 256.92,116.364C258.678,116.364 260.42,116.565 262.147,116.966C263.905,117.336 265.355,117.86 266.496,118.538L264.09,123.673C261.901,122.44 259.511,121.823 256.92,121.823C255.378,121.823 254.222,122.039 253.451,122.47C252.68,122.902 252.294,123.457 252.294,124.136C252.294,124.907 252.711,125.446 253.543,125.755C254.376,126.063 255.702,126.356 257.521,126.634C259.557,126.973 261.222,127.343 262.517,127.744C263.813,128.114 264.938,128.808 265.894,129.826C266.85,130.843 267.328,132.262 267.328,134.081C267.328,135.623 266.866,136.996 265.941,138.198C265.015,139.401 263.658,140.342 261.87,141.02C260.112,141.668 258.015,141.992 255.579,141.992ZM285.057,140.419C284.348,140.943 283.469,141.344 282.42,141.622C281.403,141.868 280.323,141.992 279.182,141.992C276.222,141.992 273.924,141.236 272.29,139.725C270.686,138.214 269.884,135.993 269.884,133.064L269.884,122.841L266.045,122.841L266.045,117.289L269.884,117.289L269.884,111.23L277.1,111.23L277.1,117.289L283.299,117.289L283.299,122.841L277.1,122.841L277.1,132.971C277.1,134.02 277.363,134.837 277.887,135.423C278.442,135.978 279.213,136.256 280.2,136.256C281.341,136.256 282.312,135.947 283.114,135.33L285.057,140.419ZM346.108,109.24L335.515,141.622L327.466,141.622L320.342,119.695L312.987,141.622L304.984,141.622L294.345,109.24L302.116,109.24L309.425,132L317.058,109.24L323.996,109.24L331.398,132.185L338.938,109.24L346.108,109.24ZM355.193,116.364C359.048,116.364 362.009,117.289 364.075,119.14C366.141,120.959 367.174,123.719 367.174,127.42L367.174,141.622L360.42,141.622L360.42,138.522C359.064,140.835 356.535,141.992 352.834,141.992C350.922,141.992 349.257,141.668 347.838,141.02C346.45,140.373 345.386,139.478 344.646,138.337C343.906,137.196 343.536,135.901 343.536,134.451C343.536,132.139 344.4,130.319 346.127,128.993C347.884,127.667 350.583,127.004 354.222,127.004L359.958,127.004C359.958,125.431 359.48,124.228 358.524,123.396C357.568,122.532 356.134,122.1 354.222,122.1C352.896,122.1 351.585,122.316 350.29,122.748C349.025,123.149 347.946,123.704 347.052,124.413L344.461,119.371C345.818,118.415 347.437,117.675 349.318,117.151C351.23,116.626 353.189,116.364 355.193,116.364ZM354.638,137.134C355.872,137.134 356.967,136.857 357.923,136.302C358.879,135.716 359.557,134.868 359.958,133.758L359.958,131.213L355.008,131.213C352.048,131.213 350.567,132.185 350.567,134.128C350.567,135.053 350.922,135.793 351.631,136.348C352.371,136.872 353.374,137.134 354.638,137.134ZM370.93,107.298L378.146,107.298L378.146,141.622L370.93,141.622L370.93,107.298ZM382.068,107.298L389.285,107.298L389.285,141.622L382.068,141.622L382.068,107.298ZM417.585,129.27C417.585,129.363 417.539,130.011 417.446,131.213L398.619,131.213C398.958,132.755 399.76,133.973 401.024,134.868C402.289,135.762 403.861,136.209 405.743,136.209C407.038,136.209 408.179,136.024 409.166,135.654C410.183,135.253 411.124,134.637 411.987,133.804L415.827,137.967C413.483,140.65 410.06,141.992 405.558,141.992C402.751,141.992 400.269,141.452 398.11,140.373C395.951,139.262 394.286,137.736 393.114,135.793C391.942,133.85 391.356,131.645 391.356,129.178C391.356,126.742 391.927,124.552 393.068,122.609C394.24,120.636 395.828,119.109 397.832,118.03C399.868,116.919 402.134,116.364 404.632,116.364C407.069,116.364 409.274,116.889 411.247,117.937C413.221,118.986 414.763,120.497 415.873,122.47C417.014,124.413 417.585,126.68 417.585,129.27ZM404.679,121.823C403.044,121.823 401.672,122.285 400.562,123.211C399.451,124.136 398.773,125.4 398.526,127.004L410.785,127.004C410.538,125.431 409.86,124.182 408.749,123.257C407.639,122.301 406.282,121.823 404.679,121.823ZM435.665,140.419C434.956,140.943 434.077,141.344 433.029,141.622C432.011,141.868 430.932,141.992 429.791,141.992C426.83,141.992 424.533,141.236 422.898,139.725C421.294,138.214 420.493,135.993 420.493,133.064L420.493,122.841L416.653,122.841L416.653,117.289L420.493,117.289L420.493,111.23L427.709,111.23L427.709,117.289L433.908,117.289L433.908,122.841L427.709,122.841L427.709,132.971C427.709,134.02 427.971,134.837 428.495,135.423C429.05,135.978 429.821,136.256 430.808,136.256C431.949,136.256 432.921,135.947 433.723,135.33L435.665,140.419Z" style="fill:rgb(51,117,187);fill-rule:nonzero;"/>
            <path d="M151.951,125.225C151.951,98.885 130.566,77.5 104.225,77.5C77.885,77.5 56.5,98.885 56.5,125.225C56.5,151.566 77.885,172.951 104.225,172.951C130.566,172.951 151.951,151.566 151.951,125.225Z" style="fill:white;stroke:rgb(223,229,236);stroke-width:1px;stroke-linecap:butt;stroke-linejoin:miter;"/>
            <path d="M104.523,99.407C113.473,106.882 123.737,106.421 126.669,106.421C126.028,148.931 121.14,140.501 104.523,152.421C87.906,140.501 83.05,148.931 82.408,106.421C85.31,106.421 95.573,106.882 104.523,99.407Z" style="fill:none;fill-rule:nonzero;stroke:rgb(51,117,187);stroke-width:6.06px;stroke-miterlimit:10;"/>
        </g>
    </g>
    <defs>
        <radialGradient id="_Radial1" cx="0" cy="0" r="1" gradientUnits="userSpaceOnUse" gradientTransform="matrix(1096,1034,-1034,1096,1500,1500)"><stop offset="0" style="stop-color:rgb(11,17,27);stop-opacity:1"/><stop offset="0.14" style="stop-color:rgb(17,52,72);stop-opacity:1"/><stop offset="0.27" style="stop-color:rgb(38,175,230);stop-opacity:1"/><stop offset="0.4" style="stop-color:rgb(62,167,235);stop-opacity:1"/><stop offset="0.5" style="stop-color:rgb(153,137,255);stop-opacity:1"/><stop offset="0.58" style="stop-color:rgb(178,147,252);stop-opacity:0.97"/><stop offset="0.66" style="stop-color:rgb(250,174,242);stop-opacity:0.87"/><stop offset="0.76" style="stop-color:rgb(254,61,206);stop-opacity:0.67"/><stop offset="0.8" style="stop-color:rgb(145,41,126);stop-opacity:0.82"/><stop offset="0.85" style="stop-color:rgb(49,24,55);stop-opacity:0.95"/><stop offset="1" style="stop-color:rgb(11,17,27);stop-opacity:1"/></radialGradient>
        <linearGradient id="_Linear2" x1="0" y1="0" x2="1" y2="0" gradientUnits="userSpaceOnUse" gradientTransform="matrix(48.7978,0,0,48.7978,2.43989e-05,29.5593)"><stop offset="0" style="stop-color:rgb(255,85,0);stop-opacity:1"/><stop offset="0.41" style="stop-color:rgb(255,85,0);stop-opacity:1"/><stop offset="0.58" style="stop-color:rgb(255,32,0);stop-opacity:1"/><stop offset="1" style="stop-color:rgb(255,32,0);stop-opacity:1"/></linearGradient>
        <linearGradient id="_Linear3" x1="0" y1="0" x2="1" y2="0" gradientUnits="userSpaceOnUse" gradientTransform="matrix(39.632,0,0,39.632,5.018,5.32632)"><stop offset="0" style="stop-color:rgb(255,69,42);stop-opacity:1"/><stop offset="1" style="stop-color:rgb(255,32,0);stop-opacity:1"/></linearGradient>
    </defs>
</svg>
