<?xml version="1.0" encoding="UTF-8" standalone="no"?>
<!DOCTYPE svg PUBLIC "-//W3C//DTD SVG 1.1//EN" "http://www.w3.org/Graphics/SVG/1.1/DTD/svg11.dtd">
<svg width="100%" height="100%" viewBox="0 0 100 100" version="1.1" xmlns="http://www.w3.org/2000/svg" xmlns:xlink="http://www.w3.org/1999/xlink" xml:space="preserve" xmlns:serif="http://www.serif.com/" style="fill-rule:evenodd;clip-rule:evenodd;stroke-linejoin:round;stroke-miterlimit:2;">
    <g transform="matrix(1,0,0,1,-1978,-94.9366)">
        <g transform="matrix(1,0,0,1,-3,-80.4158)">
            <g transform="matrix(0.56338,0,0,0.56338,893.254,141.127)">
                <circle cx="2019.5" cy="149.5" r="35.5" style="fill:white;"/>
            </g>
            <g transform="matrix(0.777778,0,0,1,461.056,90.3525)">
                <path d="M2023,86.75C2023,85.784 2021.99,85 2020.75,85L2016.25,85C2015.01,85 2014,85.784 2014,86.75L2014,104.25C2014,105.216 2015.01,106 2016.25,106L2020.75,106C2021.99,106 2023,105.216 2023,104.25L2023,86.75Z" style="fill:white;"/>
            </g>
            <g transform="matrix(0.777778,0,0,1,461.056,169.352)">
                <path d="M2023,86.75C2023,85.784 2021.99,85 2020.75,85L2016.25,85C2015.01,85 2014,85.784 2014,86.75L2014,104.25C2014,105.216 2015.01,106 2016.25,106L2020.75,106C2021.99,106 2023,105.216 2023,104.25L2023,86.75Z" style="fill:white;"/>
            </g>
            <g transform="matrix(4.76252e-17,-0.777778,1,6.12323e-17,1896,1795.3)">
                <path d="M2023,86.75C2023,85.784 2021.99,85 2020.75,85L2016.25,85C2015.01,85 2014,85.784 2014,86.75L2014,104.25C2014,105.216 2015.01,106 2016.25,106L2020.75,106C2021.99,106 2023,105.216 2023,104.25L2023,86.75Z" style="fill:white;"/>
            </g>
            <g transform="matrix(4.76252e-17,-0.777778,1,6.12323e-17,1975,1795.3)">
                <path d="M2023,86.75C2023,85.784 2021.99,85 2020.75,85L2016.25,85C2015.01,85 2014,85.784 2014,86.75L2014,104.25C2014,105.216 2015.01,106 2016.25,106L2020.75,106C2021.99,106 2023,105.216 2023,104.25L2023,86.75Z" style="fill:white;"/>
            </g>
            <g transform="matrix(0.549972,-0.549972,0.707107,0.707107,825.353,1239.94)">
                <path d="M2023,86.75C2023,85.784 2021.99,85 2020.75,85L2016.25,85C2015.01,85 2014,85.784 2014,86.75L2014,104.25C2014,105.216 2015.01,106 2016.25,106L2020.75,106C2021.99,106 2023,105.216 2023,104.25L2023,86.75Z" style="fill:white;"/>
            </g>
            <g transform="matrix(0.549972,0.549972,-0.707107,0.707107,1016.41,-980.295)">
                <path d="M2023,86.75C2023,85.784 2021.99,85 2020.75,85L2016.25,85C2015.01,85 2014,85.784 2014,86.75L2014,104.25C2014,105.216 2015.01,106 2016.25,106L2020.75,106C2021.99,106 2023,105.216 2023,104.25L2023,86.75Z" style="fill:white;"/>
            </g>
            <g transform="matrix(0.549972,0.549972,-0.707107,0.707107,960.41,-924.295)">
                <path d="M2023,86.75C2023,85.784 2021.99,85 2020.75,85L2016.25,85C2015.01,85 2014,85.784 2014,86.75L2014,104.25C2014,105.216 2015.01,106 2016.25,106L2020.75,106C2021.99,106 2023,105.216 2023,104.25L2023,86.75Z" style="fill:white;"/>
            </g>
            <g transform="matrix(0.549972,-0.549972,0.707107,0.707107,881.353,1295.94)">
                <path d="M2023,86.75C2023,85.784 2021.99,85 2020.75,85L2016.25,85C2015.01,85 2014,85.784 2014,86.75L2014,104.25C2014,105.216 2015.01,106 2016.25,106L2020.75,106C2021.99,106 2023,105.216 2023,104.25L2023,86.75Z" style="fill:white;"/>
            </g>
        </g>
    </g>
</svg>
