<?xml version="1.0" encoding="UTF-8" standalone="no"?>
<!DOCTYPE svg PUBLIC "-//W3C//DTD SVG 1.1//EN" "http://www.w3.org/Graphics/SVG/1.1/DTD/svg11.dtd">
<svg width="100%" height="100%" viewBox="0 0 540 594" version="1.1" xmlns="http://www.w3.org/2000/svg" xmlns:xlink="http://www.w3.org/1999/xlink" xml:space="preserve" xmlns:serif="http://www.serif.com/" style="fill-rule:evenodd;clip-rule:evenodd;stroke-linecap:round;stroke-linejoin:round;stroke-miterlimit:1.5;">
    <g transform="matrix(1,0,0,1,-1401.8,-1355.51)">
        <g transform="matrix(1,0,0,1,346,595)">
            <path d="M1325.75,800.512L1555.75,941L1555.75,1174L1325.75,1314.51L1095.8,1174L1095.8,941L1325.75,800.512Z" style="fill:none;stroke:rgb(230,0,122);stroke-width:8.5px;"/>
            <g transform="matrix(1,0,0,1,591.514,831.975)">
                <g transform="matrix(0.816327,0,0,0.816327,406.327,23.3105)">
                    <circle cx="120" cy="105" r="49" style="fill:rgb(230,0,122);"/>
                </g>
                <g transform="matrix(1,0,0,1,504.286,109.025)">
                    <g transform="matrix(1,0,0,1,-24,-24)">
                        <g>
                            <path d="M7.873,27.004L7.873,20.93M12.444,13.651L19.657,10.181M28.566,10.182L35.587,13.651M40.141,20.93C40.136,23.214 40.133,24.782 40.134,27.004M35.587,34.288C33.338,35.429 30.84,36.817 28.559,37.956M19.657,37.956C17.5,36.909 15.045,35.74 12.817,34.65" style="fill:none;fill-rule:nonzero;stroke:white;stroke-width:3.43px;stroke-miterlimit:4;"/>
                            <path d="M24.017,12.93C26.641,12.93 28.767,10.803 28.767,8.18C28.767,5.556 26.641,3.429 24.017,3.429C21.393,3.429 19.266,5.556 19.266,8.18C19.266,10.803 21.393,12.93 24.017,12.93Z" style="fill:none;fill-rule:nonzero;stroke:white;stroke-width:3.43px;stroke-miterlimit:4;"/>
                            <path d="M24.017,44.571C26.641,44.571 28.767,42.444 28.767,39.82C28.767,37.197 26.641,35.069 24.017,35.069C21.393,35.069 19.266,37.197 19.266,39.82C19.266,42.444 21.393,44.571 24.017,44.571Z" style="fill:none;fill-rule:nonzero;stroke:white;stroke-width:3.43px;stroke-miterlimit:4;"/>
                            <path d="M8.18,20.78C10.803,20.78 12.93,18.653 12.93,16.029C12.93,13.405 10.803,11.278 8.18,11.278C5.556,11.278 3.429,13.405 3.429,16.029C3.429,18.653 5.556,20.78 8.18,20.78Z" style="fill:none;fill-rule:nonzero;stroke:white;stroke-width:3.43px;stroke-miterlimit:4;"/>
                            <path d="M8.18,36.922C10.803,36.922 12.93,34.795 12.93,32.171C12.93,29.548 10.803,27.421 8.18,27.421C5.556,27.421 3.429,29.548 3.429,32.171C3.429,34.795 5.556,36.922 8.18,36.922Z" style="fill:none;fill-rule:nonzero;stroke:white;stroke-width:3.43px;stroke-miterlimit:4;"/>
                            <path d="M39.852,20.78C42.476,20.78 44.603,18.653 44.603,16.029C44.603,13.405 42.476,11.278 39.852,11.278C37.228,11.278 35.101,13.405 35.101,16.029C35.101,18.653 37.228,20.78 39.852,20.78Z" style="fill:none;fill-rule:nonzero;stroke:white;stroke-width:3.43px;stroke-miterlimit:4;"/>
                            <path d="M39.852,36.922C42.476,36.922 44.603,34.795 44.603,32.171C44.603,29.548 42.476,27.421 39.852,27.421C37.228,27.421 35.101,29.548 35.101,32.171C35.101,34.795 37.228,36.922 39.852,36.922Z" style="fill:none;fill-rule:nonzero;stroke:white;stroke-width:3.43px;stroke-miterlimit:4;"/>
                        </g>
                    </g>
                </g>
            </g>
            <g transform="matrix(1,0,0,1,-358.917,1074)">
                <g transform="matrix(0.816327,0,0,0.816327,1586.71,154.798)">
                    <circle cx="120" cy="105" r="49" style="fill:rgb(230,0,122);"/>
                </g>
                <g transform="matrix(1,0,0,1,1684.67,240.512)">
                    <g transform="matrix(1,0,0,1,-24,-24)">
                        <rect x="3.429" y="4.169" width="41.561" height="41.143" style="fill:none;fill-rule:nonzero;stroke:white;stroke-width:3.43px;stroke-miterlimit:4;"/>
                        <path d="M44.978,15.447L3.429,15.447" style="fill:none;fill-rule:nonzero;stroke:white;stroke-width:3.43px;stroke-miterlimit:4;"/>
                        <path d="M15.986,10.113L15.956,10.084" style="fill:none;fill-rule:nonzero;stroke:white;stroke-width:3.43px;stroke-miterlimit:10;"/>
                        <path d="M9.431,10.113L9.401,10.084" style="fill:none;fill-rule:nonzero;stroke:white;stroke-width:3.43px;stroke-miterlimit:10;"/>
                        <path d="M32.896,17.026L32.896,24.371M32.896,43.597L32.896,35.917" style="fill:none;fill-rule:nonzero;stroke:white;stroke-width:3.43px;stroke-miterlimit:4;"/>
                        <path d="M15.429,17.026L15.429,24.371M15.429,43.597L15.429,35.917" style="fill:none;fill-rule:nonzero;stroke:white;stroke-width:3.43px;stroke-miterlimit:4;"/>
                        <rect x="10.286" y="24.785" width="10.767" height="10.767" style="fill:none;fill-rule:nonzero;stroke:white;stroke-width:3.43px;stroke-miterlimit:4;"/>
                        <rect x="27.512" y="24.785" width="10.767" height="10.767" style="fill:none;fill-rule:nonzero;stroke:white;stroke-width:3.43px;stroke-miterlimit:4;"/>
                        <path d="M21.053,30.169L27.513,30.169" style="fill:none;fill-rule:nonzero;stroke:white;stroke-width:3.43px;stroke-miterlimit:4;"/>
                    </g>
                </g>
            </g>
            <g transform="matrix(1,0,0,1,-23.5833,933.488)">
                <g transform="matrix(0.816327,0,0,0.816327,1481.37,154.798)">
                    <circle cx="120" cy="105" r="49" style="fill:rgb(230,0,122);"/>
                </g>
                <g transform="matrix(1,0,0,1,1579.33,240.512)">
                    <g transform="matrix(1,0,0,1,-24,-24)">
                        <g>
                            <path d="M44.258,44.279L37.714,37.752M36.816,43.088L36.795,36.836L43.054,36.815" style="fill:none;fill-rule:nonzero;stroke:white;stroke-width:3.43px;stroke-miterlimit:10;"/>
                            <path d="M44.258,3.721L37.694,10.286M36.816,4.912L36.795,11.164L43.054,11.185" style="fill:none;fill-rule:nonzero;stroke:white;stroke-width:3.43px;stroke-miterlimit:10;"/>
                            <path d="M3.742,44.279L10.243,37.795M11.184,43.088L11.205,36.836L4.946,36.815" style="fill:none;fill-rule:nonzero;stroke:white;stroke-width:3.43px;stroke-miterlimit:10;"/>
                            <path d="M3.742,3.721L10.286,10.248M11.184,4.912L11.205,11.164L4.946,11.185" style="fill:none;fill-rule:nonzero;stroke:white;stroke-width:3.43px;stroke-miterlimit:10;"/>
                            <path d="M34.067,21.268C34.067,25.143 29.343,28.284 23.515,28.284C17.791,28.284 13.143,25.252 12.979,21.472L12.979,26.783C12.979,30.658 17.703,33.799 23.531,33.799C29.36,33.799 34.084,30.658 34.084,26.783C34.084,26.305 34.206,21.72 34.069,21.267L34.067,21.268Z" style="fill:none;fill-rule:nonzero;stroke:white;stroke-width:3.43px;stroke-miterlimit:4;"/>
                            <path d="M23.515,28.285C29.342,28.285 34.067,25.143 34.067,21.268C34.067,17.393 29.343,14.252 23.515,14.252C17.686,14.252 12.962,17.393 12.962,21.268C12.962,25.143 17.686,28.285 23.515,28.285Z" style="fill:none;fill-rule:nonzero;stroke:white;stroke-width:3.43px;stroke-miterlimit:4;"/>
                        </g>
                    </g>
                </g>
            </g>
            <g transform="matrix(1,0,0,1,81.75,700.488)">
                <g transform="matrix(0.816327,0,0,0.816327,1376.04,154.798)">
                    <circle cx="120" cy="105" r="49" style="fill:rgb(230,0,122);"/>
                </g>
                <g transform="matrix(1,0,0,1,1474,240.512)">
                    <g transform="matrix(1,0,0,1,-24,-24)">
                        <path d="M34.095,21.236C39.98,21.236 44.751,26.008 44.751,31.893C44.751,37.779 39.98,42.55 34.095,42.55C29.723,42.55 25.966,39.917 24.323,36.151" style="fill:none;fill-rule:nonzero;stroke:white;stroke-width:3.43px;stroke-miterlimit:10;"/>
                        <path d="M23.764,27.429C24.392,28.787 24.742,30.299 24.742,31.893C24.742,37.779 19.971,42.55 14.085,42.55C8.2,42.55 3.429,37.779 3.429,31.893C3.429,26.075 8.091,21.347 13.882,21.238" style="fill:none;fill-rule:nonzero;stroke:white;stroke-width:3.43px;stroke-miterlimit:10;"/>
                        <path d="M23.981,26.456C29.866,26.456 34.637,21.685 34.637,15.799C34.637,9.914 29.866,5.143 23.981,5.143C18.095,5.143 13.324,9.914 13.324,15.799C13.324,21.685 18.095,26.456 23.981,26.456Z" style="fill:none;fill-rule:nonzero;stroke:white;stroke-width:3.43px;stroke-miterlimit:10;"/>
                    </g>
                </g>
            </g>
            <g transform="matrix(1,0,0,1,-62.2,933.488)">
                <g transform="matrix(0.816327,0,0,0.816327,1060.04,154.798)">
                    <circle cx="120" cy="105" r="49" style="fill:rgb(230,0,122);"/>
                </g>
                <g transform="matrix(1,0,0,1,1158,240.512)">
                    <g transform="matrix(1,0,0,1,-24,-24)">
                        <path d="M17.143,12L17.143,10.286C17.143,6.499 20.213,3.429 24,3.429C27.787,3.429 30.857,6.499 30.857,10.286L30.857,12L17.143,12Z" style="fill:none;fill-rule:nonzero;stroke:white;stroke-width:3.43px;stroke-miterlimit:4;"/>
                        <path d="M34.286,12L13.714,12" style="fill:none;fill-rule:nonzero;stroke:white;stroke-width:3.43px;stroke-miterlimit:4;"/>
                        <path d="M31.642,26.683L29.523,26.103C28.085,25.709 27.542,23.957 28.503,22.819L29.943,21.115C32.162,18.49 32.335,14.808 30.598,12L17.386,12C15.65,14.806 15.823,18.489 18.041,21.115L19.481,22.819C20.443,23.957 19.899,25.709 18.461,26.103L16.347,26.683C10.742,28.219 6.855,33.312 6.855,39.125L6.855,44.571L41.143,44.571L41.143,39.134C41.143,33.317 37.253,28.219 31.642,26.683Z" style="fill:none;fill-rule:nonzero;stroke:white;stroke-width:3.43px;stroke-miterlimit:4;"/>
                    </g>
                </g>
            </g>
            <g transform="matrix(1,0,0,1,905.083,560)">
                <g transform="matrix(0.816327,0,0,0.816327,322.707,154.798)">
                    <circle cx="120" cy="105" r="49" style="fill:rgb(230,0,122);"/>
                </g>
                <g transform="matrix(1,0,0,1,420.667,240.512)">
                    <g transform="matrix(1,0,0,1,-24,-24)">
                        <g>
                            <path d="M40.27,22.849L39.051,22.509C38.186,22.269 37.858,21.217 38.432,20.526L39.331,19.446C40.865,17.602 40.743,14.892 39.048,13.194C37.234,11.377 34.288,11.377 32.474,13.194C30.779,14.892 30.656,17.602 32.191,19.446L33.089,20.526C33.664,21.217 33.334,22.269 32.47,22.509L31.255,22.847C30.322,23.107 29.481,23.545 28.738,24.098C28.726,24.112 28.72,24.128 28.708,24.141L27.809,25.222C27.235,25.912 27.564,26.965 28.428,27.205L29.647,27.544C32.535,28.347 34.645,30.736 35.16,33.609L45.912,33.609L45.912,30.27C45.912,26.809 43.605,23.774 40.271,22.847L40.27,22.849Z" style="fill:none;fill-rule:nonzero;stroke:white;stroke-width:3.31px;stroke-miterlimit:4;"/>
                            <path d="M21.156,27.414L21.843,27.208C22.407,27.051 22.413,26.284 22.418,25.761C21.42,24.258 20.216,23.36 18.385,22.85L17.17,22.513C16.306,22.273 15.977,21.22 16.551,20.53L17.45,19.449C18.984,17.605 18.862,14.896 17.167,13.197C15.353,11.38 12.407,11.38 10.593,13.197C8.898,14.896 8.775,17.605 10.31,19.449L11.208,20.53C11.783,21.22 11.453,22.273 10.589,22.513L9.371,22.852C6.038,23.779 3.73,26.814 3.73,30.275L3.73,33.614L15.121,33.614C15.634,30.741 17.743,28.352 20.631,27.549L21.156,27.414Z" style="fill:none;fill-rule:nonzero;stroke:white;stroke-width:3.31px;stroke-miterlimit:4;"/>
                            <path d="M22.464,25.224L21.565,24.143C20.031,22.299 20.153,19.589 21.848,17.891C23.662,16.074 26.608,16.074 28.422,17.891C30.117,19.589 30.24,22.299 28.705,24.143L27.807,25.224C27.232,25.914 27.562,26.967 28.427,27.207L29.645,27.546C32.979,28.473 35.286,31.508 35.286,34.969L35.286,38.306L14.994,38.306L14.994,34.963C14.994,31.505 17.298,28.471 20.63,27.544L21.845,27.207C22.71,26.967 23.038,25.914 22.464,25.224Z" style="fill:none;fill-rule:nonzero;stroke:white;stroke-width:3.31px;stroke-miterlimit:4;"/>
                        </g>
                    </g>
                </g>
            </g>
        </g>
    </g>
</svg>
